<?xml version="1.0" encoding="UTF-8" standalone="no"?>
<!-- Created with Inkscape (http://www.inkscape.org/) -->

<svg
   xmlns:dc="http://purl.org/dc/elements/1.1/"
   xmlns:cc="http://creativecommons.org/ns#"
   xmlns:rdf="http://www.w3.org/1999/02/22-rdf-syntax-ns#"
   xmlns:svg="http://www.w3.org/2000/svg"
   xmlns="http://www.w3.org/2000/svg"
   xmlns:sodipodi="http://sodipodi.sourceforge.net/DTD/sodipodi-0.dtd"
   xmlns:inkscape="http://www.inkscape.org/namespaces/inkscape"
   width="26.441164mm"
   height="21.884548mm"
   viewBox="0 0 93.689166 77.543675"
   id="svg2"
   version="1.1"
   inkscape:version="0.91 r13725"
   sodipodi:docname="cocalc-logo-v7.2.svg"
   inkscape:export-filename="/home/hsy/d/cocalc/cocalc-logo-1024-transparent.png"
   inkscape:export-xdpi="983.67999"
   inkscape:export-ydpi="983.67999">
  <defs
     id="defs4" />
  <sodipodi:namedview
     id="base"
     pagecolor="#dddddd"
     bordercolor="#666666"
     borderopacity="1.0"
     inkscape:pageopacity="0"
     inkscape:pageshadow="2"
     inkscape:zoom="4"
     inkscape:cx="-34.637081"
     inkscape:cy="21.543954"
     inkscape:document-units="px"
     inkscape:current-layer="layer1"
     showgrid="true"
     inkscape:window-width="2560"
     inkscape:window-height="1407"
     inkscape:window-x="0"
     inkscape:window-y="33"
     inkscape:window-maximized="1"
     inkscape:snap-center="false"
     inkscape:snap-object-midpoints="true"
     inkscape:snap-bbox="true"
     inkscape:bbox-nodes="true"
     fit-margin-top="1"
     fit-margin-left="1"
     fit-margin-right="1"
     fit-margin-bottom="1"
     inkscape:object-nodes="true"
     inkscape:snap-page="true"
     inkscape:snap-grids="true"
     inkscape:snap-nodes="true"
     inkscape:object-paths="true">
    <inkscape:grid
       type="axonomgrid"
       id="grid4346"
       units="px"
       empspacing="5"
       gridanglex="30"
       gridanglez="30"
       spacingy="1.9999999"
       originx="-83.059235"
       originy="-27.038911" />
    <inkscape:grid
       type="xygrid"
       id="grid4383"
       color="#78ff3f"
       opacity="0.1254902"
       empcolor="#3fff53"
       empopacity="0.25098039"
       spacingx="3.0000001"
       spacingy="2.9999999"
       enabled="false" />
  </sodipodi:namedview>
  <metadata
     id="metadata7">
    <rdf:RDF>
      <cc:Work
         rdf:about="">
        <dc:format>image/svg+xml</dc:format>
        <dc:type
           rdf:resource="http://purl.org/dc/dcmitype/StillImage" />
        <dc:title></dc:title>
      </cc:Work>
    </rdf:RDF>
  </metadata>
  <g
     inkscape:label="Layer 1"
     inkscape:groupmode="layer"
     id="layer1"
     transform="translate(-246.83107,-478.3255)">
    <rect
       style="color:#000000;clip-rule:nonzero;display:inline;overflow:visible;visibility:visible;opacity:1;isolation:auto;mix-blend-mode:normal;color-interpolation:sRGB;color-interpolation-filters:linearRGB;solid-color:#000000;solid-opacity:1;fill:#ffffff;fill-opacity:1;fill-rule:nonzero;stroke:none;stroke-width:1;stroke-linecap:square;stroke-linejoin:round;stroke-miterlimit:4;stroke-dasharray:none;stroke-dashoffset:0;stroke-opacity:1;color-rendering:auto;image-rendering:auto;shape-rendering:auto;text-rendering:auto;enable-background:accumulate"
       id="rect4173"
       width="52"
       height="52.000004"
       x="259.03464"
       y="407.90808"
       inkscape:export-xdpi="600"
       inkscape:export-ydpi="600" />
    <rect
       style="color:#000000;clip-rule:nonzero;display:inline;overflow:visible;visibility:visible;opacity:1;isolation:auto;mix-blend-mode:normal;color-interpolation:sRGB;color-interpolation-filters:linearRGB;solid-color:#000000;solid-opacity:1;fill:#ffffff;fill-opacity:1;fill-rule:nonzero;stroke:none;stroke-width:1;stroke-linecap:square;stroke-linejoin:round;stroke-miterlimit:4;stroke-dasharray:none;stroke-dashoffset:0;stroke-opacity:1;color-rendering:auto;image-rendering:auto;shape-rendering:auto;text-rendering:auto;enable-background:accumulate"
       id="rect4385"
       width="93.689163"
       height="77.543678"
       x="364.53131"
       y="478.3255" />
    <rect
       style="color:#000000;clip-rule:nonzero;display:inline;overflow:visible;visibility:visible;opacity:1;isolation:auto;mix-blend-mode:normal;color-interpolation:sRGB;color-interpolation-filters:linearRGB;solid-color:#000000;solid-opacity:1;fill:#434343;fill-opacity:1;fill-rule:nonzero;stroke:none;stroke-width:0.89999998;stroke-linecap:square;stroke-linejoin:miter;stroke-miterlimit:4;stroke-dasharray:none;stroke-dashoffset:0;stroke-opacity:1;color-rendering:auto;image-rendering:auto;shape-rendering:auto;text-rendering:auto;enable-background:accumulate"
       id="rect4244"
       width="40.70813"
       height="77.781746"
       x="183.61331"
       y="486.32812" />
    <text
       xml:space="preserve"
       style="font-style:normal;font-variant:normal;font-weight:normal;font-stretch:normal;font-size:19.55169678px;line-height:100%;font-family:CoCalc;-inkscape-font-specification:CoCalc;text-align:start;letter-spacing:0px;word-spacing:0px;writing-mode:lr-tb;text-anchor:start;fill:#434343;fill-opacity:1;stroke:none;stroke-width:1px;stroke-linecap:butt;stroke-linejoin:miter;stroke-opacity:1;"
       x="249.94553"
       y="553.69183"
       id="text4155"
       sodipodi:linespacing="100%"
       transform="scale(1.0014175,0.99858451)"><tspan
         sodipodi:role="line"
         id="tspan4157"
         x="249.94553"
         y="553.69183"
         dx="0 -0.46551663 -0.69827485 -1.3965497 1.8620665 -0.23275831">COCALC</tspan></text>
    <rect
       y="470.01721"
       x="202.3075"
       height="77.781746"
       width="40.70813"
       id="rect4155"
       style="color:#000000;clip-rule:nonzero;display:inline;overflow:visible;visibility:visible;opacity:1;isolation:auto;mix-blend-mode:normal;color-interpolation:sRGB;color-interpolation-filters:linearRGB;solid-color:#000000;solid-opacity:1;fill:#eeeeee;fill-opacity:1;fill-rule:nonzero;stroke:none;stroke-width:0.89999998;stroke-linecap:square;stroke-linejoin:miter;stroke-miterlimit:4;stroke-dasharray:none;stroke-dashoffset:0;stroke-opacity:1;color-rendering:auto;image-rendering:auto;shape-rendering:auto;text-rendering:auto;enable-background:accumulate" />
    <rect
       style="color:#000000;clip-rule:nonzero;display:inline;overflow:visible;visibility:visible;opacity:1;isolation:auto;mix-blend-mode:normal;color-interpolation:sRGB;color-interpolation-filters:linearRGB;solid-color:#000000;solid-opacity:1;fill:#fbb635;fill-opacity:1;fill-rule:nonzero;stroke:none;stroke-width:0.89999998;stroke-linecap:square;stroke-linejoin:miter;stroke-miterlimit:4;stroke-dasharray:none;stroke-dashoffset:0;stroke-opacity:1;color-rendering:auto;image-rendering:auto;shape-rendering:auto;text-rendering:auto;enable-background:accumulate"
       id="rect4221"
       width="14.142136"
       height="34.850262"
       x="196.03537"
       y="478.05783" />
    <rect
       style="color:#000000;clip-rule:nonzero;display:inline;overflow:visible;visibility:visible;opacity:1;isolation:auto;mix-blend-mode:normal;color-interpolation:sRGB;color-interpolation-filters:linearRGB;solid-color:#000000;solid-opacity:1;fill:#80afff;fill-opacity:1;fill-rule:nonzero;stroke:none;stroke-width:0.89999998;stroke-linecap:square;stroke-linejoin:miter;stroke-miterlimit:4;stroke-dasharray:none;stroke-dashoffset:0;stroke-opacity:1;color-rendering:auto;image-rendering:auto;shape-rendering:auto;text-rendering:auto;enable-background:accumulate"
       id="rect4223"
       width="14.142136"
       height="34.850262"
       x="215.73335"
       y="478.05783" />
    <rect
       style="color:#000000;clip-rule:nonzero;display:inline;overflow:visible;visibility:visible;opacity:1;isolation:auto;mix-blend-mode:normal;color-interpolation:sRGB;color-interpolation-filters:linearRGB;solid-color:#000000;solid-opacity:1;fill:#4474c0;fill-opacity:1;fill-rule:nonzero;stroke:none;stroke-width:0.89999998;stroke-linecap:square;stroke-linejoin:miter;stroke-miterlimit:4;stroke-dasharray:none;stroke-dashoffset:0;stroke-opacity:1;color-rendering:auto;image-rendering:auto;shape-rendering:auto;text-rendering:auto;enable-background:accumulate"
       id="rect4227"
       width="13.693079"
       height="40.406101"
       x="215.73334"
       y="516.4436" />
    <rect
       style="color:#000000;clip-rule:nonzero;display:inline;overflow:visible;visibility:visible;opacity:1;isolation:auto;mix-blend-mode:normal;color-interpolation:sRGB;color-interpolation-filters:linearRGB;solid-color:#000000;solid-opacity:1;fill:#bf7b00;fill-opacity:1;fill-rule:nonzero;stroke:none;stroke-width:0.89999998;stroke-linecap:square;stroke-linejoin:miter;stroke-miterlimit:4;stroke-dasharray:none;stroke-dashoffset:0;stroke-opacity:1;color-rendering:auto;image-rendering:auto;shape-rendering:auto;text-rendering:auto;enable-background:accumulate"
       id="rect4227-8"
       width="13.514507"
       height="40.406101"
       x="196.23187"
       y="515.84668" />
    <g
       id="g4148">
      <path
         transform="translate(246.83107,478.3255)"
         id="path4192"
         d="M 46.84375 14.449219 C 45.795411 14.449219 44.774207 14.555015 43.787109 14.755859 C 42.800011 14.956703 41.84732 15.253021 40.941406 15.634766 C 40.035492 16.01651 39.17588 16.484642 38.371094 17.027344 C 37.566307 17.570046 36.816528 18.187378 36.132812 18.871094 C 35.449097 19.55481 34.831764 20.304588 34.289062 21.109375 C 33.746361 21.914162 33.278229 22.773774 32.896484 23.679688 C 32.51474 24.585601 32.218422 25.538293 32.017578 26.525391 C 31.816734 27.512489 31.710938 28.533693 31.710938 29.582031 C 31.710938 30.63037 31.816734 31.653527 32.017578 32.640625 C 32.218422 33.627723 32.51474 34.578461 32.896484 35.484375 C 33.278229 36.390289 33.746361 37.251853 34.289062 38.056641 C 34.831764 38.861428 35.449097 39.611205 36.132812 40.294922 C 36.816528 40.978638 37.566307 41.595969 38.371094 42.138672 C 39.17588 42.681374 40.035492 43.149505 40.941406 43.53125 C 41.84732 43.912995 42.800011 44.209312 43.787109 44.410156 C 44.774207 44.611 45.795411 44.714844 46.84375 44.714844 C 47.892089 44.714844 48.915246 44.611 49.902344 44.410156 C 50.889442 44.209312 51.842133 43.912995 52.748047 43.53125 C 53.653961 43.149505 54.513573 42.681374 55.318359 42.138672 C 56.123146 41.595969 56.872925 40.978638 57.556641 40.294922 C 58.240357 39.611205 58.857689 38.861428 59.400391 38.056641 C 59.943093 37.251853 60.411224 36.390289 60.792969 35.484375 C 61.174713 34.578461 61.471031 33.627723 61.671875 32.640625 C 61.872719 31.653527 61.976562 30.63037 61.976562 29.582031 C 61.976562 28.533693 61.872719 27.512489 61.671875 26.525391 C 61.471031 25.538293 61.174713 24.585601 60.792969 23.679688 C 60.411224 22.773774 59.943093 21.914162 59.400391 21.109375 C 58.857689 20.304588 58.240357 19.55481 57.556641 18.871094 C 56.872925 18.187378 56.123146 17.570046 55.318359 17.027344 C 54.513573 16.484642 53.653961 16.01651 52.748047 15.634766 C 51.842133 15.253021 50.889442 14.956703 49.902344 14.755859 C 48.915246 14.555015 47.892089 14.449219 46.84375 14.449219 z "
         style="color:#000000;clip-rule:nonzero;display:inline;overflow:visible;visibility:visible;opacity:1;isolation:auto;mix-blend-mode:normal;color-interpolation:sRGB;color-interpolation-filters:linearRGB;solid-color:#000000;solid-opacity:1;fill:#fbb635;fill-opacity:1;fill-rule:nonzero;stroke:none;stroke-width:1;stroke-linecap:square;stroke-linejoin:round;stroke-miterlimit:4;stroke-dasharray:none;stroke-dashoffset:0;stroke-opacity:1;color-rendering:auto;image-rendering:auto;shape-rendering:auto;text-rendering:auto;enable-background:accumulate" />
      <path
         id="path4173"
         transform="translate(246.83107,478.3255)"
         d="M 44.34375 4.7070312 A 25 25 0 0 0 21.84375 29.582031 A 25 25 0 0 0 24.070312 39.84375 L 28.412109 37.335938 C 27.908896 36.146031 27.517667 34.898462 27.251953 33.605469 C 26.984803 32.305487 26.84375 30.959141 26.84375 29.582031 C 26.84375 28.204923 26.984803 26.860528 27.251953 25.560547 C 27.519103 24.260566 27.912768 23.006255 28.419922 21.810547 C 28.927075 20.614839 29.547567 19.478352 30.267578 18.414062 C 30.987589 17.349774 31.807168 16.356895 32.712891 15.451172 C 33.618613 14.545449 34.611493 13.725871 35.675781 13.005859 C 36.74007 12.285848 37.876558 11.665357 39.072266 11.158203 C 40.267974 10.65105 41.522284 10.257384 42.822266 9.9902344 C 43.322488 9.8874373 43.831043 9.8087446 44.34375 9.7441406 L 44.34375 4.7070312 z M 49.34375 4.7324219 L 49.34375 9.7441406 C 49.857167 9.8087619 50.366628 9.887368 50.867188 9.9902344 C 52.167169 10.257384 53.42148 10.65105 54.617188 11.158203 C 55.812894 11.665357 56.949383 12.285848 58.013672 13.005859 C 59.07796 13.725871 60.07084 14.545449 60.976562 15.451172 C 61.882286 16.356895 62.701864 17.349774 63.421875 18.414062 C 64.141886 19.478351 64.762378 20.614839 65.269531 21.810547 C 65.776685 23.006255 66.17035 24.260566 66.4375 25.560547 C 66.70465 26.860528 66.84375 28.204923 66.84375 29.582031 C 66.84375 30.959141 66.70465 32.305487 66.4375 33.605469 C 66.17174 34.898686 65.77873 36.145845 65.275391 37.335938 L 69.609375 39.837891 A 25 25 0 0 0 71.84375 29.582031 A 25 25 0 0 0 49.34375 4.7324219 z M 30.939453 41.650391 L 26.572266 44.171875 A 25 25 0 0 0 46.84375 54.582031 A 25 25 0 0 0 67.109375 44.167969 L 62.75 41.650391 C 62.199563 42.373979 61.618255 43.073152 60.976562 43.714844 C 60.07084 44.620566 59.07796 45.440145 58.013672 46.160156 C 56.949383 46.880167 55.812895 47.500659 54.617188 48.007812 C 53.42148 48.514966 52.167169 48.908632 50.867188 49.175781 C 49.567206 49.442931 48.220859 49.582031 46.84375 49.582031 C 45.466641 49.582031 44.122247 49.442931 42.822266 49.175781 C 41.522284 48.908632 40.267974 48.514968 39.072266 48.007812 C 37.876558 47.500659 36.74007 46.880167 35.675781 46.160156 C 34.611493 45.440145 33.618613 44.620566 32.712891 43.714844 C 32.071199 43.073152 31.489891 42.373979 30.939453 41.650391 z "
         style="color:#000000;clip-rule:nonzero;display:inline;overflow:visible;visibility:visible;opacity:1;isolation:auto;mix-blend-mode:normal;color-interpolation:sRGB;color-interpolation-filters:linearRGB;solid-color:#000000;solid-opacity:1;fill:#4474c0;fill-opacity:1;fill-rule:nonzero;stroke:none;stroke-width:1;stroke-linecap:square;stroke-linejoin:round;stroke-miterlimit:4;stroke-dasharray:none;stroke-dashoffset:0;stroke-opacity:1;color-rendering:auto;image-rendering:auto;shape-rendering:auto;text-rendering:auto;enable-background:accumulate" />
    </g>
    <path
       style="color:#000000;clip-rule:nonzero;display:inline;overflow:visible;visibility:visible;opacity:1;isolation:auto;mix-blend-mode:normal;color-interpolation:sRGB;color-interpolation-filters:linearRGB;solid-color:#000000;solid-opacity:1;fill:#fbb635;fill-opacity:1;fill-rule:nonzero;stroke:none;stroke-width:1;stroke-linecap:square;stroke-linejoin:round;stroke-miterlimit:4;stroke-dasharray:none;stroke-dashoffset:0;stroke-opacity:1;color-rendering:auto;image-rendering:auto;shape-rendering:auto;text-rendering:auto;enable-background:accumulate"
       d="m 285.03464,418.71277 c -1.04834,0 -2.06954,0.1058 -3.05664,0.30664 -0.9871,0.20084 -1.93979,0.49716 -2.8457,0.87891 -0.90592,0.38174 -1.76553,0.84987 -2.57032,1.39257 -0.80478,0.54271 -1.55456,1.16004 -2.23828,1.84375 -0.68371,0.68372 -1.30105,1.4335 -1.84375,2.23828 -0.5427,0.80479 -1.01083,1.6644 -1.39258,2.57032 -0.38174,0.90591 -0.67806,1.8586 -0.8789,2.8457 -0.20085,0.9871 -0.30664,2.0083 -0.30664,3.05664 0,1.04834 0.10579,2.0715 0.30664,3.05859 0.20084,0.9871 0.49716,1.93784 0.8789,2.84375 0.38175,0.90592 0.84988,1.76748 1.39258,2.57227 0.5427,0.80479 1.16004,1.55456 1.84375,2.23828 0.68372,0.68372 1.4335,1.30105 2.23828,1.84375 0.80479,0.5427 1.6644,1.01083 2.57032,1.39258 0.90591,0.38175 1.8586,0.67806 2.8457,0.87891 0.9871,0.20084 2.0083,0.30468 3.05664,0.30468 1.04834,0 2.0715,-0.10384 3.05859,-0.30468 0.9871,-0.20085 1.93979,-0.49716 2.84571,-0.87891 0.90591,-0.38175 1.76552,-0.84988 2.57031,-1.39258 0.80479,-0.5427 1.55456,-1.16003 2.23828,-1.84375 0.68372,-0.68372 1.30105,-1.43349 1.84375,-2.23828 0.5427,-0.80479 1.01083,-1.66635 1.39258,-2.57227 0.38174,-0.90591 0.67806,-1.85665 0.8789,-2.84375 0.20085,-0.98709 0.30469,-2.01025 0.30469,-3.05859 0,-1.04834 -0.10384,-2.06954 -0.30469,-3.05664 -0.20084,-0.9871 -0.49716,-1.93979 -0.8789,-2.8457 -0.38175,-0.90592 -0.84988,-1.76553 -1.39258,-2.57032 -0.5427,-0.80478 -1.16003,-1.55456 -1.84375,-2.23828 -0.68372,-0.68371 -1.43349,-1.30104 -2.23828,-1.84375 -0.80479,-0.5427 -1.6644,-1.01083 -2.57031,-1.39257 -0.90592,-0.38175 -1.85861,-0.67807 -2.84571,-0.87891 -0.98709,-0.20084 -2.01025,-0.30664 -3.05859,-0.30664 z"
       id="path4192-6"
       inkscape:connector-curvature="0" />
    <path
       style="color:#000000;clip-rule:nonzero;display:inline;overflow:visible;visibility:visible;opacity:1;isolation:auto;mix-blend-mode:normal;color-interpolation:sRGB;color-interpolation-filters:linearRGB;solid-color:#000000;solid-opacity:1;fill:#4474c0;fill-opacity:1;fill-rule:nonzero;stroke:none;stroke-width:1;stroke-linecap:square;stroke-linejoin:round;stroke-miterlimit:4;stroke-dasharray:none;stroke-dashoffset:0;stroke-opacity:1;color-rendering:auto;image-rendering:auto;shape-rendering:auto;text-rendering:auto;enable-background:accumulate"
       d="m 282.53464,408.97058 a 25,25 0 0 0 -22.5,24.875 25,25 0 0 0 2.22656,10.26172 l 4.3418,-2.50781 c -0.50321,-1.18991 -0.89444,-2.43748 -1.16016,-3.73047 -0.26715,-1.29998 -0.4082,-2.64633 -0.4082,-4.02344 0,-1.37711 0.14105,-2.7215 0.4082,-4.02148 0.26715,-1.29998 0.66082,-2.55429 1.16797,-3.75 0.50715,-1.19571 1.12765,-2.3322 1.84766,-3.39649 0.72001,-1.06429 1.53959,-2.05716 2.44531,-2.96289 0.90572,-0.90572 1.8986,-1.7253 2.96289,-2.44531 1.06429,-0.72001 2.20078,-1.3405 3.39649,-1.84766 1.1957,-0.50715 2.45001,-0.90082 3.75,-1.16797 0.50022,-0.10279 1.00877,-0.18149 1.52148,-0.24609 l 0,-5.03711 z m 5,0.0254 0,5.01172 c 0.51342,0.0646 1.02288,0.14323 1.52344,0.24609 1.29998,0.26715 2.55429,0.66082 3.75,1.16797 1.1957,0.50716 2.33219,1.12765 3.39648,1.84766 1.06429,0.72001 2.05717,1.53959 2.96289,2.44531 0.90573,0.90573 1.7253,1.8986 2.44531,2.96289 0.72002,1.06429 1.34051,2.20078 1.84766,3.39649 0.50715,1.19571 0.90082,2.45002 1.16797,3.75 0.26715,1.29998 0.40625,2.64437 0.40625,4.02148 0,1.37711 -0.1391,2.72346 -0.40625,4.02344 -0.26576,1.29322 -0.65877,2.54038 -1.16211,3.73047 l 4.33398,2.50195 a 25,25 0 0 0 2.23438,-10.25586 25,25 0 0 0 -22.5,-24.84961 z m -18.4043,36.91797 -4.36718,2.52148 a 25,25 0 0 0 20.27148,10.41016 25,25 0 0 0 20.26562,-10.41406 l -4.35937,-2.51758 c -0.55044,0.72359 -1.13175,1.42276 -1.77344,2.06445 -0.90572,0.90573 -1.8986,1.72531 -2.96289,2.44532 -1.06429,0.72001 -2.20078,1.3405 -3.39648,1.84765 -1.19571,0.50716 -2.45002,0.90082 -3.75,1.16797 -1.29998,0.26715 -2.64633,0.40625 -4.02344,0.40625 -1.37711,0 -2.7215,-0.1391 -4.02148,-0.40625 -1.29999,-0.26715 -2.5543,-0.66081 -3.75,-1.16797 -1.19571,-0.50715 -2.3322,-1.12764 -3.39649,-1.84765 -1.06429,-0.72001 -2.05717,-1.53959 -2.96289,-2.44532 -0.64169,-0.64169 -1.223,-1.34086 -1.77344,-2.06445 z"
       id="path4173-7"
       inkscape:connector-curvature="0" />
    <rect
       inkscape:export-ydpi="600"
       inkscape:export-xdpi="600"
       y="400.78488"
       x="179.66272"
       height="55.123207"
       width="55.123203"
       id="rect4173-3"
       style="color:#000000;clip-rule:nonzero;display:inline;overflow:visible;visibility:visible;opacity:1;isolation:auto;mix-blend-mode:normal;color-interpolation:sRGB;color-interpolation-filters:linearRGB;solid-color:#000000;solid-opacity:1;fill:#ffffff;fill-opacity:1;fill-rule:nonzero;stroke:none;stroke-width:1;stroke-linecap:square;stroke-linejoin:round;stroke-miterlimit:4;stroke-dasharray:none;stroke-dashoffset:0;stroke-opacity:1;color-rendering:auto;image-rendering:auto;shape-rendering:auto;text-rendering:auto;enable-background:accumulate" />
    <path
       style="color:#000000;clip-rule:nonzero;display:inline;overflow:visible;visibility:visible;opacity:1;isolation:auto;mix-blend-mode:normal;color-interpolation:sRGB;color-interpolation-filters:linearRGB;solid-color:#000000;solid-opacity:1;fill:#808080;fill-opacity:1;fill-rule:nonzero;stroke:none;stroke-width:1;stroke-linecap:square;stroke-linejoin:round;stroke-miterlimit:4;stroke-dasharray:none;stroke-dashoffset:0;stroke-opacity:1;color-rendering:auto;image-rendering:auto;shape-rendering:auto;text-rendering:auto;enable-background:accumulate"
       d="m 207.74448,413.67063 c -1.04834,0 -2.06954,0.10579 -3.05664,0.30664 -0.9871,0.20084 -1.93979,0.49716 -2.8457,0.8789 -0.90592,0.38175 -1.76553,0.84988 -2.57031,1.39258 -0.80479,0.5427 -1.55457,1.16004 -2.23829,1.84375 -0.68371,0.68372 -1.30104,1.4335 -1.84375,2.23828 -0.5427,0.80479 -1.01083,1.6644 -1.39257,2.57032 -0.38175,0.90591 -0.67807,1.8586 -0.87891,2.8457 -0.20084,0.9871 -0.30664,2.0083 -0.30664,3.05664 0,1.04834 0.1058,2.0715 0.30664,3.05859 0.20084,0.9871 0.49716,1.93784 0.87891,2.84375 0.38174,0.90592 0.84987,1.76748 1.39257,2.57227 0.54271,0.80479 1.16004,1.55456 1.84375,2.23828 0.68372,0.68372 1.4335,1.30105 2.23829,1.84375 0.80478,0.5427 1.66439,1.01083 2.57031,1.39258 0.90591,0.38174 1.8586,0.67806 2.8457,0.8789 0.9871,0.20085 2.0083,0.30469 3.05664,0.30469 1.04834,0 2.0715,-0.10384 3.0586,-0.30469 0.98709,-0.20084 1.93979,-0.49716 2.8457,-0.8789 0.90591,-0.38175 1.76553,-0.84988 2.57031,-1.39258 0.80479,-0.5427 1.55457,-1.16003 2.23828,-1.84375 0.68372,-0.68372 1.30105,-1.43349 1.84375,-2.23828 0.54271,-0.80479 1.01084,-1.66635 1.39258,-2.57227 0.38175,-0.90591 0.67806,-1.85665 0.87891,-2.84375 0.20084,-0.98709 0.30468,-2.01025 0.30468,-3.05859 0,-1.04834 -0.10384,-2.06954 -0.30468,-3.05664 -0.20085,-0.9871 -0.49716,-1.93979 -0.87891,-2.8457 -0.38174,-0.90592 -0.84987,-1.76553 -1.39258,-2.57032 -0.5427,-0.80478 -1.16003,-1.55456 -1.84375,-2.23828 -0.68371,-0.68371 -1.43349,-1.30105 -2.23828,-1.84375 -0.80478,-0.5427 -1.6644,-1.01083 -2.57031,-1.39258 -0.90591,-0.38174 -1.85861,-0.67806 -2.8457,-0.8789 -0.9871,-0.20085 -2.01026,-0.30664 -3.0586,-0.30664 z"
       id="path4192-6-6-5"
       inkscape:connector-curvature="0" />
    <path
       style="color:#000000;clip-rule:nonzero;display:inline;overflow:visible;visibility:visible;opacity:1;isolation:auto;mix-blend-mode:normal;color-interpolation:sRGB;color-interpolation-filters:linearRGB;solid-color:#000000;solid-opacity:1;fill:#fbb635;fill-opacity:1;fill-rule:nonzero;stroke:none;stroke-width:1;stroke-linecap:square;stroke-linejoin:round;stroke-miterlimit:4;stroke-dasharray:none;stroke-dashoffset:0;stroke-opacity:1;color-rendering:auto;image-rendering:auto;shape-rendering:auto;text-rendering:auto;enable-background:accumulate"
       d="m 207.07311,412.77528 c -1.04834,0 -2.06954,0.10579 -3.05664,0.30664 -0.9871,0.20084 -1.93979,0.49716 -2.8457,0.8789 -0.90592,0.38175 -1.76553,0.84988 -2.57031,1.39258 -0.80479,0.5427 -1.55457,1.16004 -2.23829,1.84375 -0.68371,0.68372 -1.30104,1.4335 -1.84375,2.23828 -0.5427,0.80479 -1.01083,1.6644 -1.39257,2.57032 -0.38175,0.90591 -0.67807,1.8586 -0.87891,2.8457 -0.20084,0.9871 -0.30664,2.0083 -0.30664,3.05664 0,1.04834 0.1058,2.0715 0.30664,3.05859 0.20084,0.9871 0.49716,1.93784 0.87891,2.84375 0.38174,0.90592 0.84987,1.76748 1.39257,2.57227 0.54271,0.80479 1.16004,1.55456 1.84375,2.23828 0.68372,0.68372 1.4335,1.30105 2.23829,1.84375 0.80478,0.5427 1.66439,1.01083 2.57031,1.39258 0.90591,0.38174 1.8586,0.67806 2.8457,0.8789 0.9871,0.20085 2.0083,0.30469 3.05664,0.30469 1.04834,0 2.0715,-0.10384 3.0586,-0.30469 0.98709,-0.20084 1.93979,-0.49716 2.8457,-0.8789 0.90591,-0.38175 1.76553,-0.84988 2.57031,-1.39258 0.80479,-0.5427 1.55457,-1.16003 2.23828,-1.84375 0.68372,-0.68372 1.30105,-1.43349 1.84375,-2.23828 0.54271,-0.80479 1.01084,-1.66635 1.39258,-2.57227 0.38175,-0.90591 0.67806,-1.85665 0.87891,-2.84375 0.20084,-0.98709 0.30468,-2.01025 0.30468,-3.05859 0,-1.04834 -0.10384,-2.06954 -0.30468,-3.05664 -0.20085,-0.9871 -0.49716,-1.93979 -0.87891,-2.8457 -0.38174,-0.90592 -0.84987,-1.76553 -1.39258,-2.57032 -0.5427,-0.80478 -1.16003,-1.55456 -1.84375,-2.23828 -0.68371,-0.68371 -1.43349,-1.30105 -2.23828,-1.84375 -0.80478,-0.5427 -1.6644,-1.01083 -2.57031,-1.39258 -0.90591,-0.38174 -1.85861,-0.67806 -2.8457,-0.8789 -0.9871,-0.20085 -2.01026,-0.30664 -3.0586,-0.30664 z"
       id="path4192-6-6"
       inkscape:connector-curvature="0" />
    <path
       style="color:#000000;clip-rule:nonzero;display:inline;overflow:visible;visibility:visible;opacity:1;isolation:auto;mix-blend-mode:normal;color-interpolation:sRGB;color-interpolation-filters:linearRGB;solid-color:#000000;solid-opacity:1;fill:#808080;fill-opacity:1;fill-rule:nonzero;stroke:none;stroke-width:1;stroke-linecap:square;stroke-linejoin:round;stroke-miterlimit:4;stroke-dasharray:none;stroke-dashoffset:0;stroke-opacity:1;color-rendering:auto;image-rendering:auto;shape-rendering:auto;text-rendering:auto;enable-background:accumulate"
       d="m 205.24448,403.92844 a 25,25 0 0 0 -22.5,24.875 25,25 0 0 0 2.22656,10.26172 l 4.3418,-2.50781 c -0.50321,-1.18991 -0.89444,-2.43748 -1.16015,-3.73047 -0.26715,-1.29998 -0.40821,-2.64633 -0.40821,-4.02344 0,-1.37711 0.14106,-2.7215 0.40821,-4.02148 0.26715,-1.29999 0.66081,-2.5543 1.16796,-3.75 0.50716,-1.19571 1.12765,-2.3322 1.84766,-3.39649 0.72001,-1.06429 1.53959,-2.05717 2.44531,-2.96289 0.90573,-0.90572 1.89861,-1.7253 2.96289,-2.44531 1.06429,-0.72001 2.20078,-1.3405 3.39649,-1.84766 1.19571,-0.50715 2.45002,-0.90082 3.75,-1.16797 0.50022,-0.10279 1.00878,-0.18149 1.52148,-0.24609 l 0,-5.03711 z m 5,0.0254 0,5.01172 c 0.51342,0.0646 1.02288,0.14323 1.52344,0.24609 1.29998,0.26715 2.55429,0.66082 3.75,1.16797 1.19571,0.50716 2.3322,1.12765 3.39648,1.84766 1.06429,0.72001 2.05717,1.53959 2.96289,2.44531 0.90573,0.90572 1.72531,1.8986 2.44532,2.96289 0.72001,1.06429 1.3405,2.20078 1.84765,3.39649 0.50716,1.1957 0.90082,2.45001 1.16797,3.75 0.26715,1.29998 0.40625,2.64437 0.40625,4.02148 0,1.37711 -0.1391,2.72346 -0.40625,4.02344 -0.26576,1.29321 -0.65877,2.54037 -1.16211,3.73047 l 4.33399,2.50195 a 25,25 0 0 0 2.23437,-10.25586 25,25 0 0 0 -22.5,-24.84961 z m -18.40429,36.91797 -4.36719,2.52148 a 25,25 0 0 0 20.27148,10.41016 25,25 0 0 0 20.26563,-10.41406 l -4.35938,-2.51758 c -0.55043,0.72359 -1.13174,1.42276 -1.77344,2.06445 -0.90572,0.90572 -1.8986,1.7253 -2.96289,2.44531 -1.06428,0.72002 -2.20077,1.34051 -3.39648,1.84766 -1.19571,0.50715 -2.45002,0.90082 -3.75,1.16797 -1.29998,0.26715 -2.64633,0.40625 -4.02344,0.40625 -1.37711,0 -2.7215,-0.1391 -4.02148,-0.40625 -1.29998,-0.26715 -2.55429,-0.66081 -3.75,-1.16797 -1.19571,-0.50715 -2.3322,-1.12764 -3.39649,-1.84766 -1.06428,-0.72001 -2.05716,-1.53959 -2.96289,-2.44531 -0.64169,-0.64169 -1.223,-1.34086 -1.77343,-2.06445 z"
       id="path4173-7-7-3"
       inkscape:connector-curvature="0" />
    <path
       style="color:#000000;clip-rule:nonzero;display:inline;overflow:visible;visibility:visible;opacity:1;isolation:auto;mix-blend-mode:normal;color-interpolation:sRGB;color-interpolation-filters:linearRGB;solid-color:#000000;solid-opacity:1;fill:#4474c0;fill-opacity:1;fill-rule:nonzero;stroke:none;stroke-width:1;stroke-linecap:square;stroke-linejoin:round;stroke-miterlimit:4;stroke-dasharray:none;stroke-dashoffset:0;stroke-opacity:1;color-rendering:auto;image-rendering:auto;shape-rendering:auto;text-rendering:auto;enable-background:accumulate"
       d="m 204.57311,403.03309 a 25,25 0 0 0 -22.5,24.875 25,25 0 0 0 2.22656,10.26172 l 4.3418,-2.50781 c -0.50321,-1.18991 -0.89444,-2.43748 -1.16015,-3.73047 -0.26715,-1.29998 -0.40821,-2.64633 -0.40821,-4.02344 0,-1.37711 0.14106,-2.7215 0.40821,-4.02148 0.26715,-1.29999 0.66081,-2.5543 1.16796,-3.75 0.50716,-1.19571 1.12765,-2.3322 1.84766,-3.39649 0.72001,-1.06429 1.53959,-2.05717 2.44531,-2.96289 0.90573,-0.90572 1.89861,-1.7253 2.96289,-2.44531 1.06429,-0.72001 2.20078,-1.3405 3.39649,-1.84766 1.19571,-0.50715 2.45002,-0.90082 3.75,-1.16797 0.50022,-0.10279 1.00878,-0.18149 1.52148,-0.24609 l 0,-5.03711 z m 5,0.0254 0,5.01172 c 0.51342,0.0646 1.02288,0.14323 1.52344,0.24609 1.29998,0.26715 2.55429,0.66082 3.75,1.16797 1.19571,0.50716 2.3322,1.12765 3.39648,1.84766 1.06429,0.72001 2.05717,1.53959 2.96289,2.44531 0.90573,0.90572 1.72531,1.8986 2.44532,2.96289 0.72001,1.06429 1.3405,2.20078 1.84765,3.39649 0.50716,1.1957 0.90082,2.45001 1.16797,3.75 0.26715,1.29998 0.40625,2.64437 0.40625,4.02148 0,1.37711 -0.1391,2.72346 -0.40625,4.02344 -0.26576,1.29321 -0.65877,2.54037 -1.16211,3.73047 l 4.33399,2.50195 a 25,25 0 0 0 2.23437,-10.25586 25,25 0 0 0 -22.5,-24.84961 z m -18.40429,36.91797 -4.36719,2.52148 a 25,25 0 0 0 20.27148,10.41016 25,25 0 0 0 20.26563,-10.41406 l -4.35938,-2.51758 c -0.55043,0.72359 -1.13174,1.42276 -1.77344,2.06445 -0.90572,0.90572 -1.8986,1.7253 -2.96289,2.44531 -1.06428,0.72002 -2.20077,1.34051 -3.39648,1.84766 -1.19571,0.50715 -2.45002,0.90082 -3.75,1.16797 -1.29998,0.26715 -2.64633,0.40625 -4.02344,0.40625 -1.37711,0 -2.7215,-0.1391 -4.02148,-0.40625 -1.29998,-0.26715 -2.55429,-0.66081 -3.75,-1.16797 -1.19571,-0.50715 -2.3322,-1.12764 -3.39649,-1.84766 -1.06428,-0.72001 -2.05716,-1.53959 -2.96289,-2.44531 -0.64169,-0.64169 -1.223,-1.34086 -1.77343,-2.06445 z"
       id="path4173-7-7"
       inkscape:connector-curvature="0" />
    <rect
       y="569.20105"
       x="246.08061"
       height="77.543678"
       width="93.689163"
       id="rect4157"
       style="color:#000000;clip-rule:nonzero;display:inline;overflow:visible;visibility:visible;opacity:1;isolation:auto;mix-blend-mode:normal;color-interpolation:sRGB;color-interpolation-filters:linearRGB;solid-color:#000000;solid-opacity:1;fill:#434343;fill-opacity:1;fill-rule:nonzero;stroke:none;stroke-width:1;stroke-linecap:square;stroke-linejoin:round;stroke-miterlimit:4;stroke-dasharray:none;stroke-dashoffset:0;stroke-opacity:1;color-rendering:auto;image-rendering:auto;shape-rendering:auto;text-rendering:auto;enable-background:accumulate" />
    <text
       transform="scale(1.0014175,0.99858451)"
       sodipodi:linespacing="100%"
       id="text4159"
       y="644.69623"
       x="249.19612"
       style="font-style:normal;font-variant:normal;font-weight:normal;font-stretch:normal;font-size:19.55169678px;line-height:100%;font-family:CoCalc;-inkscape-font-specification:CoCalc;text-align:start;letter-spacing:0px;word-spacing:0px;writing-mode:lr-tb;text-anchor:start;fill:#ffffff;fill-opacity:1;stroke:none;stroke-width:1px;stroke-linecap:butt;stroke-linejoin:miter;stroke-opacity:1;"
       xml:space="preserve"><tspan
         dx="0 -0.46551663 -0.69827485 -1.3965497 1.8620665 -0.23275831"
         y="644.69623"
         x="249.19612"
         id="tspan4161"
         sodipodi:role="line">COCALC</tspan></text>
    <g
       id="g4163"
       transform="translate(-0.75046183,90.875556)"
       style="fill:#ffffff;fill-opacity:1">
      <path
         style="color:#000000;clip-rule:nonzero;display:inline;overflow:visible;visibility:visible;opacity:1;isolation:auto;mix-blend-mode:normal;color-interpolation:sRGB;color-interpolation-filters:linearRGB;solid-color:#000000;solid-opacity:1;fill:#ffffff;fill-opacity:1;fill-rule:nonzero;stroke:none;stroke-width:1;stroke-linecap:square;stroke-linejoin:round;stroke-miterlimit:4;stroke-dasharray:none;stroke-dashoffset:0;stroke-opacity:1;color-rendering:auto;image-rendering:auto;shape-rendering:auto;text-rendering:auto;enable-background:accumulate"
         d="m 46.84375,14.449219 c -1.048339,0 -2.069543,0.105796 -3.056641,0.30664 -0.987098,0.200844 -1.939789,0.497162 -2.845703,0.878907 -0.905914,0.381744 -1.765526,0.849876 -2.570312,1.392578 -0.804787,0.542702 -1.554566,1.160034 -2.238282,1.84375 -0.683715,0.683716 -1.301048,1.433494 -1.84375,2.238281 -0.542701,0.804787 -1.010833,1.664399 -1.392578,2.570313 -0.381744,0.905913 -0.678062,1.858605 -0.878906,2.845703 -0.200844,0.987098 -0.30664,2.008302 -0.30664,3.05664 0,1.048339 0.105796,2.071496 0.30664,3.058594 0.200844,0.987098 0.497162,1.937836 0.878906,2.84375 0.381745,0.905914 0.849877,1.767478 1.392578,2.572266 0.542702,0.804787 1.160035,1.554564 1.84375,2.238281 0.683716,0.683716 1.433495,1.301047 2.238282,1.84375 0.804786,0.542702 1.664398,1.010833 2.570312,1.392578 0.905914,0.381745 1.858605,0.678062 2.845703,0.878906 0.987098,0.200844 2.008302,0.304688 3.056641,0.304688 1.048339,0 2.071496,-0.103844 3.058594,-0.304688 0.987098,-0.200844 1.939789,-0.497161 2.845703,-0.878906 0.905914,-0.381745 1.765526,-0.849876 2.570312,-1.392578 0.804787,-0.542703 1.554566,-1.160034 2.238282,-1.84375 0.683716,-0.683717 1.301048,-1.433494 1.84375,-2.238281 0.542702,-0.804788 1.010833,-1.666352 1.392578,-2.572266 0.381744,-0.905914 0.678062,-1.856652 0.878906,-2.84375 0.200844,-0.987098 0.304687,-2.010255 0.304687,-3.058594 0,-1.048338 -0.103843,-2.069542 -0.304687,-3.05664 -0.200844,-0.987098 -0.497162,-1.93979 -0.878906,-2.845703 -0.381745,-0.905914 -0.849876,-1.765526 -1.392578,-2.570313 -0.542702,-0.804787 -1.160034,-1.554565 -1.84375,-2.238281 -0.683716,-0.683716 -1.433495,-1.301048 -2.238282,-1.84375 -0.804786,-0.542702 -1.664398,-1.010834 -2.570312,-1.392578 -0.905914,-0.381745 -1.858605,-0.678063 -2.845703,-0.878907 -0.987098,-0.200844 -2.010255,-0.30664 -3.058594,-0.30664 z"
         id="path4165"
         transform="translate(246.83107,478.3255)"
         inkscape:connector-curvature="0" />
      <path
         style="color:#000000;clip-rule:nonzero;display:inline;overflow:visible;visibility:visible;opacity:1;isolation:auto;mix-blend-mode:normal;color-interpolation:sRGB;color-interpolation-filters:linearRGB;solid-color:#000000;solid-opacity:1;fill:#ffffff;fill-opacity:1;fill-rule:nonzero;stroke:none;stroke-width:1;stroke-linecap:square;stroke-linejoin:round;stroke-miterlimit:4;stroke-dasharray:none;stroke-dashoffset:0;stroke-opacity:1;color-rendering:auto;image-rendering:auto;shape-rendering:auto;text-rendering:auto;enable-background:accumulate"
         d="m 44.34375,4.7070312 a 25,25 0 0 0 -22.5,24.8749998 25,25 0 0 0 2.226562,10.261719 l 4.341797,-2.507812 c -0.503213,-1.189907 -0.894442,-2.437476 -1.160156,-3.730469 -0.26715,-1.299982 -0.408203,-2.646328 -0.408203,-4.023438 0,-1.377108 0.141053,-2.721503 0.408203,-4.021484 0.26715,-1.299981 0.660815,-2.554292 1.167969,-3.75 0.507153,-1.195708 1.127645,-2.332195 1.847656,-3.396485 0.720011,-1.064288 1.53959,-2.057167 2.445313,-2.96289 0.905722,-0.905723 1.898602,-1.725301 2.96289,-2.445313 1.064289,-0.720011 2.200777,-1.340502 3.396485,-1.847656 1.195708,-0.507153 2.450018,-0.900819 3.75,-1.1679686 0.500222,-0.1027971 1.008777,-0.1814898 1.521484,-0.2460938 l 0,-5.0371094 z m 5,0.025391 0,5.0117187 c 0.513417,0.064621 1.022878,0.1432274 1.523438,0.2460938 1.299981,0.2671496 2.554292,0.6608156 3.75,1.1679686 1.195706,0.507154 2.332195,1.127645 3.396484,1.847656 1.064288,0.720012 2.057168,1.53959 2.96289,2.445313 0.905724,0.905723 1.725302,1.898602 2.445313,2.96289 0.720011,1.064289 1.340503,2.200777 1.847656,3.396485 0.507154,1.195708 0.900819,2.450019 1.167969,3.75 0.26715,1.299981 0.40625,2.644376 0.40625,4.021484 0,1.37711 -0.1391,2.723456 -0.40625,4.023438 -0.26576,1.293217 -0.65877,2.540376 -1.162109,3.730469 l 4.333984,2.501953 a 25,25 0 0 0 2.234375,-10.25586 25,25 0 0 0 -22.5,-24.8496091 z M 30.939453,41.650391 26.572266,44.171875 A 25,25 0 0 0 46.84375,54.582031 25,25 0 0 0 67.109375,44.167969 L 62.75,41.650391 c -0.550437,0.723588 -1.131745,1.422761 -1.773438,2.064453 -0.905722,0.905722 -1.898602,1.725301 -2.96289,2.445312 -1.064289,0.720011 -2.200777,1.340503 -3.396484,1.847656 -1.195708,0.507154 -2.450019,0.90082 -3.75,1.167969 -1.299982,0.26715 -2.646329,0.40625 -4.023438,0.40625 -1.377109,0 -2.721503,-0.1391 -4.021484,-0.40625 -1.299982,-0.267149 -2.554292,-0.660813 -3.75,-1.167969 -1.195708,-0.507153 -2.332196,-1.127645 -3.396485,-1.847656 -1.064288,-0.720011 -2.057168,-1.53959 -2.96289,-2.445312 -0.641692,-0.641692 -1.223,-1.340865 -1.773438,-2.064453 z"
         transform="translate(246.83107,478.3255)"
         id="path4167"
         inkscape:connector-curvature="0" />
    </g>
  </g>
</svg>
