<?xml version="1.0" encoding="UTF-8" standalone="no"?>
<!-- Created with Inkscape (http://www.inkscape.org/) -->

<svg
   xmlns:dc="http://purl.org/dc/elements/1.1/"
   xmlns:cc="http://creativecommons.org/ns#"
   xmlns:rdf="http://www.w3.org/1999/02/22-rdf-syntax-ns#"
   xmlns:svg="http://www.w3.org/2000/svg"
   xmlns="http://www.w3.org/2000/svg"
   xmlns:sodipodi="http://sodipodi.sourceforge.net/DTD/sodipodi-0.dtd"
   xmlns:inkscape="http://www.inkscape.org/namespaces/inkscape"
   width="5in"
   height="1.25in"
   viewBox="0 0 450 112.5"
   id="svg2"
   version="1.1"
   inkscape:version="0.91 r13725"
   sodipodi:docname="cocalc-wide-5x2in-v1.svg"
   inkscape:export-filename="/home/hsy/d/sage/cocalc/cocalc-logo-v7.2.png"
   inkscape:export-xdpi="600.04889"
   inkscape:export-ydpi="600.04889">
  <defs
     id="defs4" />
  <sodipodi:namedview
     id="base"
     pagecolor="#dddddd"
     bordercolor="#666666"
     borderopacity="1.0"
     inkscape:pageopacity="0"
     inkscape:pageshadow="2"
     inkscape:zoom="2.8284271"
     inkscape:cx="223.11149"
     inkscape:cy="56.651797"
     inkscape:document-units="px"
     inkscape:current-layer="layer1"
     showgrid="true"
     inkscape:window-width="2560"
     inkscape:window-height="1410"
     inkscape:window-x="0"
     inkscape:window-y="30"
     inkscape:window-maximized="1"
     inkscape:snap-center="false"
     inkscape:snap-object-midpoints="true"
     inkscape:snap-bbox="true"
     inkscape:bbox-nodes="true"
     fit-margin-top="1"
     fit-margin-left="1"
     fit-margin-right="1"
     fit-margin-bottom="1"
     inkscape:object-nodes="true"
     inkscape:snap-page="true"
     inkscape:snap-grids="false"
     inkscape:snap-nodes="true"
     inkscape:object-paths="true"
     units="in"
     inkscape:snap-others="false"
     inkscape:bbox-paths="true"
     inkscape:snap-to-guides="true">
    <inkscape:grid
       type="axonomgrid"
       id="grid4346"
       units="px"
       empspacing="5"
       gridanglex="30"
       gridanglez="30"
       spacingy="1.9999999"
       originx="-83.059235"
       originy="-27.038911"
       enabled="false" />
    <inkscape:grid
       type="xygrid"
       id="grid4383"
       color="#31a400"
       opacity="0.1254902"
       empcolor="#002b05"
       empopacity="0.25098039"
       spacingx="3.0000001"
       spacingy="2.9999999"
       enabled="true" />
  </sodipodi:namedview>
  <metadata
     id="metadata7">
    <rdf:RDF>
      <cc:Work
         rdf:about="">
        <dc:format>image/svg+xml</dc:format>
        <dc:type
           rdf:resource="http://purl.org/dc/dcmitype/StillImage" />
        <dc:title></dc:title>
      </cc:Work>
    </rdf:RDF>
  </metadata>
  <g
     inkscape:label="Layer 1"
     inkscape:groupmode="layer"
     id="layer1"
     transform="translate(-246.83107,-443.36918)">
    <rect
       style="color:#000000;clip-rule:nonzero;display:inline;overflow:visible;visibility:visible;opacity:1;isolation:auto;mix-blend-mode:normal;color-interpolation:sRGB;color-interpolation-filters:linearRGB;solid-color:#000000;solid-opacity:1;fill:#ffffff;fill-opacity:1;fill-rule:nonzero;stroke:none;stroke-width:1;stroke-linecap:square;stroke-linejoin:round;stroke-miterlimit:4;stroke-dasharray:none;stroke-dashoffset:0;stroke-opacity:1;color-rendering:auto;image-rendering:auto;shape-rendering:auto;text-rendering:auto;enable-background:accumulate"
       id="rect4385"
       width="450"
       height="112.49992"
       x="246.83107"
       y="443.36917" />
    <g
       transform="matrix(1.5545175,0,0,1.5501198,-30.840388,-321.09736)"
       style="font-style:normal;font-variant:normal;font-weight:normal;font-stretch:normal;font-size:45.31429672px;line-height:100%;font-family:CoCalc;-inkscape-font-specification:CoCalc;text-align:start;letter-spacing:0px;word-spacing:0px;writing-mode:lr-tb;text-anchor:start;fill:#434343;fill-opacity:1;stroke:none;stroke-width:1px;stroke-linecap:butt;stroke-linejoin:miter;stroke-opacity:1"
       id="text4155">
      <path
         d="m 272.57211,547.0747 c 2.31103,0.58908 4.758,0.67971 7.20498,0.22657 2.44697,-0.45314 4.66737,-1.2688 6.6612,-2.58292 l -5.43772,-3.89703 c -1.63131,0.86098 -4.89394,0.90629 -7.06903,0.40783 -1.54069,-0.36251 -2.94543,-0.99691 -4.21423,-1.94851 -1.2688,-0.90629 -2.31103,-1.94852 -3.21731,-3.26263 -0.90629,-1.35943 -1.45006,-2.8548 -1.76726,-4.48612 -0.3172,-1.63131 -0.22657,-3.21731 0.13594,-4.80331 0.36252,-1.54069 0.99692,-2.99075 1.9032,-4.21423 0.90629,-1.2688 1.94852,-2.31103 3.30795,-3.21732 1.31411,-0.86097 2.8548,-1.40474 4.48611,-1.72194 3.21732,-0.58909 6.20806,0.0906 9.01755,1.99383 l 3.4892,-4.93926 c -1.94852,-1.35943 -4.07829,-2.26571 -6.38932,-2.8548 -2.31103,-0.58909 -4.71269,-0.6344 -7.15966,-0.18126 -2.44697,0.45315 -4.66737,1.31412 -6.6612,2.62823 -2.03914,1.31412 -3.71577,2.90012 -5.0752,4.84863 -1.31412,1.9032 -2.2204,3.98766 -2.80949,6.29869 -0.58908,2.35634 -0.67971,4.758 -0.22657,7.20497 0.45314,2.40166 1.2688,4.57675 2.58292,6.61589 1.31411,2.03914 2.99074,3.71577 4.89394,5.0752 1.94852,1.31412 3.98766,2.2204 6.344,2.80949 z"
         id="path4181"
         inkscape:connector-curvature="0" />
      <path
         d="m 307.43098,511.36703 c -5.02989,0 -9.28943,1.81257 -12.77864,5.34709 -3.53451,3.53451 -5.34708,7.79406 -5.34708,12.77863 0,5.02989 1.81257,9.24412 5.34708,12.77863 3.53452,3.53452 7.74875,5.34709 12.77864,5.34709 5.02988,0 9.24411,-1.81257 12.77863,-5.34709 3.57983,-3.4892 5.3924,-7.74874 5.3924,-12.77863 0,-4.98457 -1.81257,-9.24412 -5.3924,-12.77863 -3.53452,-3.53452 -7.74875,-5.34709 -12.77863,-5.34709 z m 0,6.07212 c 3.30794,0 6.16274,1.17817 8.51908,3.53451 2.35635,2.35635 3.53452,5.21115 3.53452,8.51909 0,3.30794 -1.13286,6.16274 -3.53452,8.5644 -2.35634,2.35635 -5.21114,3.4892 -8.51908,3.4892 -3.30795,0 -6.20806,-1.13285 -8.56441,-3.4892 -2.35634,-2.35634 -3.4892,-5.25646 -3.4892,-8.5644 0,-3.30794 1.13286,-6.16274 3.4892,-8.51909 2.40166,-2.40165 5.25646,-3.53451 8.56441,-3.53451 z"
         id="path4183"
         inkscape:connector-curvature="0" />
      <path
         d="m 343.59907,547.0747 c 2.31103,0.58908 4.758,0.67971 7.20497,0.22657 2.44697,-0.45314 4.66737,-1.2688 6.6612,-2.58292 l -5.43771,-3.89703 c -1.63132,0.86098 -4.89395,0.90629 -7.06903,0.40783 -1.54069,-0.36251 -2.94543,-0.99691 -4.21423,-1.94851 -1.2688,-0.90629 -2.31103,-1.94852 -3.21732,-3.26263 -0.90628,-1.35943 -1.45006,-2.8548 -1.76726,-4.48612 -0.3172,-1.63131 -0.22657,-3.21731 0.13595,-4.80331 0.36251,-1.54069 0.99691,-2.99075 1.9032,-4.21423 0.90628,-1.2688 1.94851,-2.31103 3.30794,-3.21732 1.31412,-0.86097 2.8548,-1.40474 4.48612,-1.72194 3.21731,-0.58909 6.20805,0.0906 9.01754,1.99383 l 3.4892,-4.93926 c -1.94851,-1.35943 -4.07829,-2.26571 -6.38931,-2.8548 -2.31103,-0.58909 -4.71269,-0.6344 -7.15966,-0.18126 -2.44698,0.45315 -4.66738,1.31412 -6.6612,2.62823 -2.03915,1.31412 -3.71578,2.90012 -5.07521,4.84863 -1.31411,1.9032 -2.2204,3.98766 -2.80948,6.29869 -0.58909,2.35634 -0.67972,4.758 -0.22657,7.20497 0.45314,2.40166 1.2688,4.57675 2.58291,6.61589 1.31412,2.03914 2.99074,3.71577 4.89395,5.0752 1.94851,1.31412 3.98765,2.2204 6.344,2.80949 z"
         id="path4185"
         inkscape:connector-curvature="0" />
      <path
         d="m 373.21874,535.56487 5.34709,-10.64886 5.30177,10.64886 6.79714,0 -12.09891,-24.19784 -18.12572,36.25144 6.70651,0 3.08138,-6.07212 2.99074,-5.98148 z m 20.43675,6.0268 -6.70652,0 2.99074,6.0268 6.75183,0 -3.03605,-6.0268 z"
         id="path4187"
         inkscape:connector-curvature="0" />
      <path
         d="m 409.2289,541.54635 -6.0268,6.07212 24.15252,0 0,-6.07212 -18.12572,0 z m -6.0268,-30.17932 0,0.99692 0,27.05263 6.0268,-6.07211 0,-20.98052 0,-0.99692 -6.0268,0 z"
         id="path4189"
         inkscape:connector-curvature="0" />
      <path
         d="m 444.67963,547.0747 c 2.31102,0.58908 4.758,0.67971 7.20497,0.22657 2.44697,-0.45314 4.66737,-1.2688 6.6612,-2.58292 l -5.43772,-3.89703 c -1.63131,0.86098 -4.89394,0.90629 -7.06903,0.40783 -1.54068,-0.36251 -2.94542,-0.99691 -4.21423,-1.94851 -1.2688,-0.90629 -2.31102,-1.94852 -3.21731,-3.26263 -0.90629,-1.35943 -1.45006,-2.8548 -1.76726,-4.48612 -0.3172,-1.63131 -0.22657,-3.21731 0.13595,-4.80331 0.36251,-1.54069 0.99691,-2.99075 1.9032,-4.21423 0.90628,-1.2688 1.94851,-2.31103 3.30794,-3.21732 1.31411,-0.86097 2.8548,-1.40474 4.48611,-1.72194 3.21732,-0.58909 6.20806,0.0906 9.01755,1.99383 l 3.4892,-4.93926 c -1.94851,-1.35943 -4.07829,-2.26571 -6.38932,-2.8548 -2.31102,-0.58909 -4.71268,-0.6344 -7.15965,-0.18126 -2.44698,0.45315 -4.66738,1.31412 -6.66121,2.62823 -2.03914,1.31412 -3.71577,2.90012 -5.0752,4.84863 -1.31411,1.9032 -2.2204,3.98766 -2.80948,6.29869 -0.58909,2.35634 -0.67972,4.758 -0.22657,7.20497 0.45314,2.40166 1.2688,4.57675 2.58291,6.61589 1.31411,2.03914 2.99074,3.71577 4.89394,5.0752 1.94852,1.31412 3.98766,2.2204 6.34401,2.80949 z"
         id="path4191"
         inkscape:connector-curvature="0" />
    </g>
    <g
       id="g4148"
       transform="matrix(1.9703149,0,0,1.9703149,-267.79522,-501.24174)">
      <path
         transform="translate(246.83107,478.3255)"
         id="path4192"
         d="m 46.84375,14.449219 c -1.048339,0 -2.069543,0.105796 -3.056641,0.30664 -0.987098,0.200844 -1.939789,0.497162 -2.845703,0.878907 -0.905914,0.381744 -1.765526,0.849876 -2.570312,1.392578 -0.804787,0.542702 -1.554566,1.160034 -2.238282,1.84375 -0.683715,0.683716 -1.301048,1.433494 -1.84375,2.238281 -0.542701,0.804787 -1.010833,1.664399 -1.392578,2.570313 -0.381744,0.905913 -0.678062,1.858605 -0.878906,2.845703 -0.200844,0.987098 -0.30664,2.008302 -0.30664,3.05664 0,1.048339 0.105796,2.071496 0.30664,3.058594 0.200844,0.987098 0.497162,1.937836 0.878906,2.84375 0.381745,0.905914 0.849877,1.767478 1.392578,2.572266 0.542702,0.804787 1.160035,1.554564 1.84375,2.238281 0.683716,0.683716 1.433495,1.301047 2.238282,1.84375 0.804786,0.542702 1.664398,1.010833 2.570312,1.392578 0.905914,0.381745 1.858605,0.678062 2.845703,0.878906 0.987098,0.200844 2.008302,0.304688 3.056641,0.304688 1.048339,0 2.071496,-0.103844 3.058594,-0.304688 0.987098,-0.200844 1.939789,-0.497161 2.845703,-0.878906 0.905914,-0.381745 1.765526,-0.849876 2.570312,-1.392578 0.804787,-0.542703 1.554566,-1.160034 2.238282,-1.84375 0.683716,-0.683717 1.301048,-1.433494 1.84375,-2.238281 0.542702,-0.804788 1.010833,-1.666352 1.392578,-2.572266 0.381744,-0.905914 0.678062,-1.856652 0.878906,-2.84375 0.200844,-0.987098 0.304687,-2.010255 0.304687,-3.058594 0,-1.048338 -0.103843,-2.069542 -0.304687,-3.05664 -0.200844,-0.987098 -0.497162,-1.93979 -0.878906,-2.845703 -0.381745,-0.905914 -0.849876,-1.765526 -1.392578,-2.570313 -0.542702,-0.804787 -1.160034,-1.554565 -1.84375,-2.238281 -0.683716,-0.683716 -1.433495,-1.301048 -2.238282,-1.84375 -0.804786,-0.542702 -1.664398,-1.010834 -2.570312,-1.392578 -0.905914,-0.381745 -1.858605,-0.678063 -2.845703,-0.878907 -0.987098,-0.200844 -2.010255,-0.30664 -3.058594,-0.30664 z"
         style="color:#000000;clip-rule:nonzero;display:inline;overflow:visible;visibility:visible;opacity:1;isolation:auto;mix-blend-mode:normal;color-interpolation:sRGB;color-interpolation-filters:linearRGB;solid-color:#000000;solid-opacity:1;fill:#fbb635;fill-opacity:1;fill-rule:nonzero;stroke:none;stroke-width:1;stroke-linecap:square;stroke-linejoin:round;stroke-miterlimit:4;stroke-dasharray:none;stroke-dashoffset:0;stroke-opacity:1;color-rendering:auto;image-rendering:auto;shape-rendering:auto;text-rendering:auto;enable-background:accumulate"
         inkscape:connector-curvature="0" />
      <path
         id="path4173"
         transform="translate(246.83107,478.3255)"
         d="m 44.34375,4.7070312 a 25,25 0 0 0 -22.5,24.8749998 25,25 0 0 0 2.226562,10.261719 l 4.341797,-2.507812 c -0.503213,-1.189907 -0.894442,-2.437476 -1.160156,-3.730469 -0.26715,-1.299982 -0.408203,-2.646328 -0.408203,-4.023438 0,-1.377108 0.141053,-2.721503 0.408203,-4.021484 0.26715,-1.299981 0.660815,-2.554292 1.167969,-3.75 0.507153,-1.195708 1.127645,-2.332195 1.847656,-3.396485 0.720011,-1.064288 1.53959,-2.057167 2.445313,-2.96289 0.905722,-0.905723 1.898602,-1.725301 2.96289,-2.445313 1.064289,-0.720011 2.200777,-1.340502 3.396485,-1.847656 1.195708,-0.507153 2.450018,-0.900819 3.75,-1.1679686 0.500222,-0.1027971 1.008777,-0.1814898 1.521484,-0.2460938 l 0,-5.0371094 z m 5,0.025391 0,5.0117187 c 0.513417,0.064621 1.022878,0.1432274 1.523438,0.2460938 1.299981,0.2671493 2.554292,0.6608153 3.75,1.1679683 1.195706,0.507154 2.332195,1.127645 3.396484,1.847656 1.064288,0.720012 2.057168,1.53959 2.96289,2.445313 0.905724,0.905723 1.725302,1.898602 2.445313,2.96289 0.720011,1.064289 1.340503,2.200777 1.847656,3.396485 0.507154,1.195708 0.900819,2.450019 1.167969,3.75 0.26715,1.299981 0.40625,2.644376 0.40625,4.021484 0,1.37711 -0.1391,2.723456 -0.40625,4.023438 -0.26576,1.293217 -0.65877,2.540376 -1.162109,3.730469 l 4.333984,2.501953 a 25,25 0 0 0 2.234375,-10.25586 25,25 0 0 0 -22.5,-24.8496088 z M 30.939453,41.650391 26.572266,44.171875 A 25,25 0 0 0 46.84375,54.582031 25,25 0 0 0 67.109375,44.167969 L 62.75,41.650391 c -0.550437,0.723588 -1.131745,1.422761 -1.773438,2.064453 -0.905722,0.905722 -1.898602,1.725301 -2.96289,2.445312 -1.064289,0.720011 -2.200777,1.340503 -3.396484,1.847656 -1.195708,0.507154 -2.450019,0.90082 -3.75,1.167969 -1.299982,0.26715 -2.646329,0.40625 -4.023438,0.40625 -1.377109,0 -2.721503,-0.1391 -4.021484,-0.40625 -1.299982,-0.267149 -2.554292,-0.660813 -3.75,-1.167969 -1.195708,-0.507153 -2.332196,-1.127645 -3.396485,-1.847656 -1.064288,-0.720011 -2.057168,-1.53959 -2.96289,-2.445312 -0.641692,-0.641692 -1.223,-1.340865 -1.773438,-2.064453 z"
         style="color:#000000;clip-rule:nonzero;display:inline;overflow:visible;visibility:visible;opacity:1;isolation:auto;mix-blend-mode:normal;color-interpolation:sRGB;color-interpolation-filters:linearRGB;solid-color:#000000;solid-opacity:1;fill:#4474c0;fill-opacity:1;fill-rule:nonzero;stroke:none;stroke-width:1;stroke-linecap:square;stroke-linejoin:round;stroke-miterlimit:4;stroke-dasharray:none;stroke-dashoffset:0;stroke-opacity:1;color-rendering:auto;image-rendering:auto;shape-rendering:auto;text-rendering:auto;enable-background:accumulate"
         inkscape:connector-curvature="0" />
    </g>
  </g>
</svg>
