<?xml version="1.0" encoding="UTF-8" standalone="no"?>
<!-- Created with Inkscape (http://www.inkscape.org/) -->

<svg
   xmlns:dc="http://purl.org/dc/elements/1.1/"
   xmlns:cc="http://creativecommons.org/ns#"
   xmlns:rdf="http://www.w3.org/1999/02/22-rdf-syntax-ns#"
   xmlns:svg="http://www.w3.org/2000/svg"
   xmlns="http://www.w3.org/2000/svg"
   xmlns:sodipodi="http://sodipodi.sourceforge.net/DTD/sodipodi-0.dtd"
   xmlns:inkscape="http://www.inkscape.org/namespaces/inkscape"
   width="24in"
   height="81in"
   viewBox="0 0 2160.0001 7290.0001"
   id="svg2"
   version="1.1"
   inkscape:version="0.91 r13725"
   sodipodi:docname="cocalc-vertical-banner-2018.svg"
   inkscape:export-filename="/home/hsy/d/cocalc/artwork/banner-vertical-2018-v1.png"
   inkscape:export-xdpi="100.00246"
   inkscape:export-ydpi="100.00246">
  <defs
     id="defs4" />
  <sodipodi:namedview
     id="base"
     pagecolor="#ffffff"
     bordercolor="#666666"
     borderopacity="1.0"
     inkscape:pageopacity="0.0"
     inkscape:pageshadow="2"
     inkscape:zoom="0.088388348"
     inkscape:cx="655.53615"
     inkscape:cy="3768.8634"
     inkscape:document-units="px"
     inkscape:current-layer="layer1-6"
     showgrid="true"
     inkscape:window-width="1920"
     inkscape:window-height="1056"
     inkscape:window-x="0"
     inkscape:window-y="24"
     inkscape:window-maximized="1"
     units="in"
     inkscape:snap-page="true"
     inkscape:snap-smooth-nodes="false"
     inkscape:object-nodes="true"
     borderlayer="true">
    <inkscape:grid
       type="xygrid"
       id="grid4456"
       spacingx="216.00001"
       spacingy="364.50001"
       units="in" />
  </sodipodi:namedview>
  <metadata
     id="metadata7">
    <rdf:RDF>
      <cc:Work
         rdf:about="">
        <dc:format>image/svg+xml</dc:format>
        <dc:type
           rdf:resource="http://purl.org/dc/dcmitype/StillImage" />
        <dc:title></dc:title>
      </cc:Work>
    </rdf:RDF>
  </metadata>
  <g
     inkscape:label="Layer 1"
     inkscape:groupmode="layer"
     id="layer1"
     transform="translate(0,6237.6381)">
    <g
       transform="matrix(15.546198,0,0,15.546198,297.8984,-19387.777)"
       id="layer1-6"
       inkscape:label="Layer 1">
      <rect
         style="color:#000000;clip-rule:nonzero;display:inline;overflow:visible;visibility:visible;opacity:1;isolation:auto;mix-blend-mode:normal;color-interpolation:sRGB;color-interpolation-filters:linearRGB;solid-color:#000000;solid-opacity:1;fill:#ffffff;fill-opacity:1;fill-rule:nonzero;stroke:none;stroke-width:1;stroke-linecap:butt;stroke-linejoin:round;stroke-miterlimit:4;stroke-dasharray:none;stroke-dashoffset:0;stroke-opacity:1;color-rendering:auto;image-rendering:auto;shape-rendering:auto;text-rendering:auto;enable-background:accumulate"
         id="rect4571"
         width="138.94072"
         height="468.92499"
         x="-19.162138"
         y="845.87488"
         ry="0" />
      <path
         style="color:#000000;clip-rule:nonzero;display:inline;overflow:visible;visibility:visible;opacity:1;isolation:auto;mix-blend-mode:normal;color-interpolation:sRGB;color-interpolation-filters:linearRGB;solid-color:#000000;solid-opacity:1;fill:#fbb635;fill-opacity:1;fill-rule:nonzero;stroke:none;stroke-width:0.06432441;stroke-linecap:butt;stroke-linejoin:round;stroke-miterlimit:4;stroke-dasharray:none;stroke-dashoffset:0;stroke-opacity:1;color-rendering:auto;image-rendering:auto;shape-rendering:auto;text-rendering:auto;enable-background:accumulate"
         d="m -19.162139,845.87491 138.940729,0 0,23.44625 -138.940729,23.44624 z"
         id="rect4438-5-6"
         inkscape:connector-curvature="0"
         sodipodi:nodetypes="ccccc" />
      <path
         style="color:#000000;clip-rule:nonzero;display:inline;overflow:visible;visibility:visible;opacity:1;isolation:auto;mix-blend-mode:normal;color-interpolation:sRGB;color-interpolation-filters:linearRGB;solid-color:#000000;solid-opacity:1;fill:#4474c0;fill-opacity:1;fill-rule:nonzero;stroke:none;stroke-width:0.06432441;stroke-linecap:butt;stroke-linejoin:round;stroke-miterlimit:4;stroke-dasharray:none;stroke-dashoffset:0;stroke-opacity:1;color-rendering:auto;image-rendering:auto;shape-rendering:auto;text-rendering:auto;enable-background:accumulate"
         d="m -19.162139,845.87491 c 56.812463,0 320.043239,0 138.940729,0 l -138.940729,23.44625 z"
         id="rect4438-5"
         inkscape:connector-curvature="0"
         sodipodi:nodetypes="cccc" />
      <path
         style="color:#000000;clip-rule:nonzero;display:inline;overflow:visible;visibility:visible;opacity:1;isolation:auto;mix-blend-mode:normal;color-interpolation:sRGB;color-interpolation-filters:linearRGB;solid-color:#000000;solid-opacity:1;fill:#fbb635;fill-opacity:1;fill-rule:nonzero;stroke:none;stroke-width:0.06432441;stroke-linecap:butt;stroke-linejoin:round;stroke-miterlimit:4;stroke-dasharray:none;stroke-dashoffset:0;stroke-opacity:1;color-rendering:auto;image-rendering:auto;shape-rendering:auto;text-rendering:auto;enable-background:accumulate"
         d="m 119.77859,1314.7999 -138.94073,0 1e-6,-229.2522 138.940729,-28.6566 z"
         id="rect4438-5-6-2"
         inkscape:connector-curvature="0"
         sodipodi:nodetypes="ccccc" />
      <path
         style="color:#000000;clip-rule:nonzero;display:inline;overflow:visible;visibility:visible;opacity:1;isolation:auto;mix-blend-mode:normal;color-interpolation:sRGB;color-interpolation-filters:linearRGB;solid-color:#000000;solid-opacity:1;fill:#4474c0;fill-opacity:1;fill-rule:nonzero;stroke:none;stroke-width:0.06432441;stroke-linecap:butt;stroke-linejoin:round;stroke-miterlimit:4;stroke-dasharray:none;stroke-dashoffset:0;stroke-opacity:1;color-rendering:auto;image-rendering:auto;shape-rendering:auto;text-rendering:auto;enable-background:accumulate"
         d="m 119.77859,1314.7999 -138.94073,0 1e-6,0 0,-205.1547 138.940729,-29.3078 z"
         id="rect4438-5-9"
         inkscape:connector-curvature="0"
         sodipodi:nodetypes="cccccc" />
      <path
         id="path2220"
         style="fill:#000000"
         d="m -110.10586,1305.1609 c -0.79289,-0.5548 -1.44213,-1.379 -1.44213,-1.8299 0,-0.4539 -1.45758,-2.6975 -3.23916,-4.9914 -1.86661,-2.4048 -3.40198,-5.1356 -3.62349,-6.4441 -0.71925,-4.2509 -1.66941,-6.4813 -3.89365,-9.1444 -1.22172,-1.4617 -2.27033,-3.2876 -2.33014,-4.0572 -0.0605,-0.7668 -0.15233,-8.8439 -0.20579,-17.945 -0.11904,-20.3912 -1.63582,-32.3643 -6.94508,-54.8305 -1.84281,-7.7979 -2.02661,-9.6631 -2.43184,-24.6775 -0.24109,-8.9337 -0.61736,-16.5319 -0.83525,-16.8849 -0.65672,-1.0623 -2.9779,-17.4184 -4.09338,-28.8418 -0.575,-5.8881 -1.60636,-13.6324 -2.29193,-17.2096 -1.4288,-7.4548 -4.83523,-17.9792 -5.35071,-16.5326 -1.2222,3.4318 -1.82203,17.0522 -1.40863,31.981 0.37325,13.4892 0.2764,17.2782 -0.55281,21.5825 -1.07352,5.5745 -0.94623,6.8021 1.42893,13.7385 1.72508,5.0377 1.78864,11.4587 0.34196,34.5343 -1.23705,19.7264 -0.93108,44.4785 0.74044,59.9479 0.62947,5.8278 0.86451,10.4933 0.54272,10.788 -0.31171,0.2823 -3.3946,1.4484 -6.85026,2.5853 -7.81694,2.5705 -10.73248,4.6514 -13.85188,9.8839 -3.63389,6.095 -5.12577,7.476 -8.63749,7.9945 -1.66256,0.2422 -3.93329,1.0088 -5.04607,1.6866 -2.44504,1.4991 -7.73935,1.6524 -10.93705,0.3127 -4.61966,-1.9296 -6.39237,-10.1562 -3.51012,-16.2885 1.49409,-3.1786 3.18197,-4.6171 7.7769,-6.6285 4.54945,-1.9913 11.86099,-9.2505 14.29223,-14.1894 1.9666,-3.9947 2.02561,-4.3579 1.69838,-10.4689 -0.22598,-4.2178 -1.45859,-11.3114 -3.69362,-21.2548 -4.77592,-21.2487 -5.85086,-28.2092 -6.53592,-42.328 -0.67788,-13.9785 -1.68756,-21.3426 -4.87062,-35.539 -3.7498,-16.7234 -5.00097,-25.6539 -7.43262,-53.056 -1.67587,-18.8852 -1.68596,-27.6676 -0.0403,-35.5754 0.69908,-3.3581 1.57641,-10.4447 1.95055,-15.7487 0.37426,-5.3032 1.28074,-12.4573 2.01472,-15.8972 2.24814,-10.5376 2.72327,-14.4921 2.35002,-19.5571 -0.38434,-5.2142 -4.39923,-26.37017 -5.58251,-29.41557 l -0.71423,-1.839 -2.04648,1.723 c -3.05213,2.5674 -12.41521,7.0755 -21.08568,10.1501 -6.90582,2.4494 -8.31447,2.7298 -13.95872,2.7793 -7.34677,0.1008 -9.03403,-0.7466 -11.35965,-5.4938 -3.66899,-7.482 -4.96172,-31.28098 -2.58889,-47.65934 0.62039,-4.28222 1.29899,-11.14386 1.50759,-15.24854 0.33289,-6.54993 0.20983,-7.96019 -1.01058,-11.54233 -1.71228,-5.02668 -3.71681,-16.56498 -4.30744,-24.79552 -0.57398,-7.99751 0.18965,-10.928 3.54119,-13.58206 1.38241,-1.09452 2.81415,-1.9903 3.18144,-1.9903 0.36719,0 1.53978,-0.7364 2.60525,-1.63017 4.04426,-3.40358 12.61757,-4.86831 15.9005,-2.71762 1.95328,1.28013 2.38171,3.681 2.93936,16.46915 0.23605,5.41809 0.63048,10.05137 0.87662,10.29751 0.24512,0.2421 1.98778,-0.89781 3.87145,-2.54916 4.8089,-4.20757 9.77234,-4.85722 10.6416,-1.39411 0.46404,1.84906 -0.24715,3.23511 -4.70158,9.15558 -10.22608,13.59315 -12.08504,19.04454 -12.15253,35.63474 -0.0403,9.34321 0.91295,17.8441 1.99707,17.8441 0.19469,0 2.36596,-1.33763 4.82584,-2.97285 3.05717,-2.03266 5.39762,-4.2701 7.3959,-7.07045 5.25819,-7.36904 9.97651,-10.76255 19.386,-13.9432 10.29094,-3.47822 22.50581,-10.73429 23.83648,-14.16007 0.37628,-0.96842 0.56391,-4.09561 0.41763,-6.95042 -0.23705,-4.63023 -0.62039,-5.92752 -3.55015,-12.00434 -7.5797,-15.72266 -8.94718,-22.34926 -6.13746,-29.74455 2.68364,-7.06237 9.9618,-15.67727 13.24483,-15.67727 0.83627,0 3.27426,-1.1399 5.41719,-2.53201 4.94368,-3.21292 8.36602,-4.25094 12.14407,-3.68401 6.68802,0.99868 16.63136,10.13912 21.3089,19.57818 4.36273,8.80453 4.10731,11.87319 -2.13818,25.68222 -6.70033,14.81478 -7.10919,17.54551 -3.31985,22.17273 5.66121,6.9131 16.25751,13.89983 24.74003,16.31279 6.19777,1.76233 8.549217,2.98697 10.740161,5.5906 5.469137,6.4995 7.549519,15.71662 10.749935,47.62912 1.653669,16.4892 2.64207,23.90977 5.54873,41.65507 0.485219,2.9637 -0.683942,11.5564 -3.604633,26.4781 -2.85743,14.6008 -4.524421,24.3315 -6.457734,37.6946 -1.813656,12.537 -4.188805,19.097 -8.73997,24.1408 -2.52363,2.7962 -3.260337,5.1024 -4.602807,14.4081 -0.540696,3.7477 -1.634401,8.8572 -2.430622,11.3558 -1.28679,4.0371 -1.44496,5.876 -1.42326,16.5469 0.0202,10.9219 0.1977,12.764 1.9466,20.4396 1.86693,8.1924 1.921303,8.9115 1.887416,24.9823 -0.04031,18.0822 -0.876618,26.472 -3.959216,39.6083 -1.33782,5.7014 -1.74445,9.1 -1.74385,14.5735 9e-4,8.5211 1.10723,12.0276 9.004262,28.5391 l 4.960111,10.3713 -1.842112,3.4448 c -3.415189,6.3865 -4.893634,7.71 -9.510771,8.514 -5.49545,0.9583 -7.02193,0.9079 -8.73352,-0.2925 z m 10.568869,-241.1925 c 0.515476,-4.8179 -0.652669,-30.1733 -1.979699,-42.9987 -0.91093,-8.8055 -1.95379,-14.0965 -3.57598,-18.1517 l -0.77877,-1.947 -0.6093,1.947 c -1.1045,3.5285 -0.58408,17.2155 1.45696,38.2837 1.933,19.9575 3.25853,28.0246 4.48065,27.269 0.31472,-0.1916 0.767665,-2.1759 1.005737,-4.4023 z"
         inkscape:connector-curvature="0" />
      <text
         xml:space="preserve"
         style="font-style:normal;font-variant:normal;font-weight:normal;font-stretch:normal;font-size:13.17650509px;line-height:100%;font-family:'Noto Sans';-inkscape-font-specification:'Noto Sans';text-align:start;letter-spacing:0px;word-spacing:0px;writing-mode:lr-tb;text-anchor:start;fill:#ffffff;fill-opacity:1;stroke:none;stroke-width:1px;stroke-linecap:butt;stroke-linejoin:miter;stroke-opacity:1"
         x="16.524128"
         y="1172.4629"
         id="text4567"
         sodipodi:linespacing="100%"><tspan
           sodipodi:role="line"
           id="tspan4569"
           x="16.524128"
           y="1172.4629">cocalc.com</tspan></text>
      <g
         id="g4379"
         transform="matrix(0.93737427,0,0,0.93737427,-34.055443,79.330143)">
        <g
           transform="translate(-200.58361,424.66251)"
           id="g4148">
          <text
             xml:space="preserve"
             style="font-style:normal;font-variant:normal;font-weight:bold;font-stretch:normal;font-size:8.75px;line-height:125%;font-family:'Noto Sans';-inkscape-font-specification:'Noto Sans Bold';text-align:center;letter-spacing:0px;word-spacing:0px;writing-mode:lr-tb;text-anchor:middle;fill:#000000;fill-opacity:1;stroke:none;stroke-width:1px;stroke-linecap:butt;stroke-linejoin:miter;stroke-opacity:1"
             x="290.66266"
             y="590.45966"
             id="text4810"
             sodipodi:linespacing="125%"><tspan
               sodipodi:role="line"
               x="290.66266"
               y="590.45966"
               id="tspan4814"
               style="font-style:normal;font-variant:normal;font-weight:bold;font-stretch:normal;font-size:8.75px;line-height:125%;font-family:'Noto Sans';-inkscape-font-specification:'Noto Sans Bold';text-align:center;text-anchor:middle;fill:#6d6d6d;fill-opacity:1">Collaborative Calculation</tspan><tspan
               sodipodi:role="line"
               x="290.66266"
               y="601.39716"
               style="font-style:normal;font-variant:normal;font-weight:bold;font-stretch:normal;font-size:8.75px;line-height:125%;font-family:'Noto Sans';-inkscape-font-specification:'Noto Sans Bold';text-align:center;text-anchor:middle;fill:#6d6d6d;fill-opacity:1"
               id="tspan4818">in the Cloud</tspan></text>
        </g>
        <g
           id="g4827"
           transform="matrix(1.1553655,0,0,1.1553655,-13.982895,-142.07472)">
          <g
             id="g4820"
             transform="translate(-200.58361,424.66251)">
            <path
               inkscape:connector-curvature="0"
               id="path4192"
               d="m 290.58361,482.29641 c -1.41961,0 -2.80248,0.14326 -4.13917,0.41524 -1.33668,0.27197 -2.62678,0.67323 -3.85353,1.19017 -1.22675,0.51694 -2.39079,1.15087 -3.4806,1.88577 -1.08981,0.7349 -2.10513,1.57087 -3.03098,2.49673 -0.92586,0.92586 -1.76183,1.94117 -2.49673,3.03098 -0.7349,1.08981 -1.36883,2.25386 -1.88577,3.48061 -0.51694,1.22674 -0.9182,2.51684 -1.19017,3.85352 -0.27198,1.33669 -0.41524,2.71956 -0.41524,4.13917 0,1.41962 0.14326,2.80513 0.41524,4.14182 0.27197,1.33668 0.67323,2.62413 1.19017,3.85088 0.51694,1.22675 1.15087,2.39344 1.88577,3.48325 0.7349,1.08981 1.57087,2.10512 2.49673,3.03098 0.92585,0.92586 1.94117,1.76182 3.03098,2.49673 1.08981,0.7349 2.25385,1.36882 3.4806,1.88576 1.22675,0.51695 2.51685,0.91821 3.85353,1.19018 1.33669,0.27198 2.71956,0.4126 4.13917,0.4126 1.41962,0 2.80513,-0.14062 4.14182,-0.4126 1.33668,-0.27197 2.62677,-0.67323 3.85352,-1.19018 1.22675,-0.51694 2.3908,-1.15086 3.48061,-1.88576 1.0898,-0.73491 2.10512,-1.57087 3.03098,-2.49673 0.92586,-0.92586 1.76182,-1.94117 2.49673,-3.03098 0.7349,-1.08981 1.36882,-2.2565 1.88576,-3.48325 0.51695,-1.22675 0.91821,-2.5142 1.19018,-3.85088 0.27198,-1.33669 0.41259,-2.7222 0.41259,-4.14182 0,-1.41961 -0.14061,-2.80248 -0.41259,-4.13917 -0.27197,-1.33668 -0.67323,-2.62678 -1.19018,-3.85352 -0.51694,-1.22675 -1.15086,-2.3908 -1.88576,-3.48061 -0.73491,-1.08981 -1.57087,-2.10512 -2.49673,-3.03098 -0.92586,-0.92586 -1.94118,-1.76183 -3.03098,-2.49673 -1.08981,-0.7349 -2.25386,-1.36883 -3.48061,-1.88577 -1.22675,-0.51694 -2.51684,-0.9182 -3.85352,-1.19017 -1.33669,-0.27198 -2.7222,-0.41524 -4.14182,-0.41524 z"
               style="color:#000000;clip-rule:nonzero;display:inline;overflow:visible;visibility:visible;opacity:1;isolation:auto;mix-blend-mode:normal;color-interpolation:sRGB;color-interpolation-filters:linearRGB;solid-color:#000000;solid-opacity:1;fill:#fbb635;fill-opacity:1;fill-rule:nonzero;stroke:none;stroke-width:1;stroke-linecap:square;stroke-linejoin:round;stroke-miterlimit:4;stroke-dasharray:none;stroke-dashoffset:0;stroke-opacity:1;color-rendering:auto;image-rendering:auto;shape-rendering:auto;text-rendering:auto;enable-background:accumulate" />
            <path
               inkscape:connector-curvature="0"
               id="path4173"
               d="m 287.19822,469.10396 a 33.85391,33.85391 0 0 0 -30.46852,33.68464 33.85391,33.85391 0 0 0 3.01511,13.89597 l 5.87948,-3.39597 c -0.68143,-1.61132 -1.21122,-3.30072 -1.57104,-5.05163 -0.36176,-1.76038 -0.55277,-3.58355 -0.55277,-5.44837 0,-1.86482 0.19101,-3.68534 0.55277,-5.44572 0.36177,-1.76037 0.89485,-3.45891 1.58162,-5.07808 0.68676,-1.61918 1.527,-3.15816 2.50201,-4.59938 0.97501,-1.44121 2.08485,-2.78572 3.31134,-4.01221 1.22649,-1.22649 2.571,-2.33633 4.01221,-3.31134 1.44122,-0.97501 2.9802,-1.81525 4.59938,-2.50201 1.61917,-0.68677 3.3177,-1.21985 5.07808,-1.58162 0.67738,-0.1392 1.36604,-0.24576 2.06033,-0.33324 l 0,-6.82104 z m 6.77078,0.0344 0,6.78666 c 0.69525,0.0875 1.38514,0.19395 2.06298,0.33324 1.76037,0.36177 3.45891,0.89485 5.07808,1.58162 1.61917,0.68676 3.15816,1.527 4.59937,2.50201 1.44121,0.97501 2.78573,2.08485 4.01222,3.31134 1.22649,1.22649 2.33633,2.571 3.31133,4.01221 0.97501,1.44122 1.81526,2.9802 2.50202,4.59938 0.68677,1.61917 1.21985,3.31771 1.58161,5.07808 0.36177,1.76038 0.55013,3.5809 0.55013,5.44572 0,1.86482 -0.18836,3.68799 -0.55013,5.44837 -0.35988,1.75121 -0.89208,3.44006 -1.57367,5.05163 l 5.86889,3.38804 a 33.85391,33.85391 0 0 0 3.02569,-13.88804 33.85391,33.85391 0 0 0 -30.46852,-33.65026 z m -24.92229,49.99271 -5.91386,3.41448 a 33.85391,33.85391 0 0 0 27.45076,14.09698 33.85391,33.85391 0 0 0 27.44283,-14.10227 l -5.90328,-3.40919 c -0.74538,0.97985 -1.53256,1.92664 -2.40151,2.79559 -1.22649,1.22649 -2.57101,2.33633 -4.01222,3.31133 -1.44121,0.97501 -2.98019,1.81526 -4.59937,2.50202 -1.61917,0.68677 -3.31771,1.21985 -5.07808,1.58161 -1.76038,0.36177 -3.58355,0.55013 -5.44837,0.55013 -1.86482,0 -3.68534,-0.18836 -5.44572,-0.55013 -1.76038,-0.36176 -3.45891,-0.89484 -5.07808,-1.58161 -1.61918,-0.68676 -3.15816,-1.52701 -4.59938,-2.50202 -1.44121,-0.975 -2.78572,-2.08484 -4.01221,-3.31133 -0.86895,-0.86895 -1.65614,-1.81574 -2.40151,-2.79559 z"
               style="color:#000000;clip-rule:nonzero;display:inline;overflow:visible;visibility:visible;opacity:1;isolation:auto;mix-blend-mode:normal;color-interpolation:sRGB;color-interpolation-filters:linearRGB;solid-color:#000000;solid-opacity:1;fill:#4474c0;fill-opacity:1;fill-rule:nonzero;stroke:none;stroke-width:1;stroke-linecap:square;stroke-linejoin:round;stroke-miterlimit:4;stroke-dasharray:none;stroke-dashoffset:0;stroke-opacity:1;color-rendering:auto;image-rendering:auto;shape-rendering:auto;text-rendering:auto;enable-background:accumulate" />
          </g>
          <g
             transform="scale(1.0014175,0.99858451)"
             style="font-style:normal;font-variant:normal;font-weight:normal;font-stretch:normal;font-size:26.47605515px;line-height:100%;font-family:CoCalc;-inkscape-font-specification:CoCalc;text-align:start;letter-spacing:0px;word-spacing:0px;writing-mode:lr-tb;text-anchor:start;fill:#434343;fill-opacity:1;stroke:none;stroke-width:1px;stroke-linecap:butt;stroke-linejoin:miter;stroke-opacity:1"
             id="text4155">
            <path
               inkscape:connector-curvature="0"
               d="m 39.478615,989.4722 c 1.350279,0.34419 2.779986,0.39715 4.209693,0.13238 1.429707,-0.26476 2.727034,-0.74132 3.89198,-1.50913 l -3.177126,-2.27694 c -0.953138,0.50304 -2.859414,0.52952 -4.130265,0.23828 -0.900186,-0.21181 -1.720943,-0.58247 -2.462273,-1.13847 -0.74133,-0.52952 -1.350279,-1.13847 -1.8798,-1.90627 -0.529521,-0.79428 -0.847234,-1.66799 -1.032566,-2.62113 -0.185332,-0.95314 -0.13238,-1.8798 0.07943,-2.80646 0.211809,-0.90019 0.582473,-1.74742 1.111994,-2.46228 0.529521,-0.74133 1.138471,-1.35028 1.932752,-1.8798 0.767806,-0.50304 1.667992,-0.82076 2.62113,-1.00609 1.8798,-0.34419 3.627219,0.0529 5.268735,1.16495 l 2.038656,-2.88589 c -1.13847,-0.79428 -2.382845,-1.3238 -3.733124,-1.66799 -1.350278,-0.34419 -2.753509,-0.37067 -4.183216,-0.10591 -1.429707,0.26476 -2.727034,0.76781 -3.891981,1.53561 -1.191422,0.76781 -2.171036,1.69447 -2.965318,2.83294 -0.767805,1.112 -1.297326,2.3299 -1.641515,3.68017 -0.344189,1.37676 -0.397141,2.77999 -0.13238,4.2097 0.26476,1.40323 0.741329,2.67408 1.509135,3.8655 0.767805,1.19142 1.747419,2.17104 2.859414,2.96532 1.13847,0.7678 2.329893,1.29733 3.706647,1.64151 z"
               id="path4145" />
            <path
               inkscape:connector-curvature="0"
               d="m 59.845812,968.60907 c -2.938842,0 -5.427591,1.05905 -7.466247,3.12418 -2.065133,2.06513 -3.124175,4.55388 -3.124175,7.46624 0,2.93885 1.059042,5.40112 3.124175,7.46625 2.065132,2.06513 4.527405,3.12418 7.466247,3.12418 2.938842,0 5.401115,-1.05905 7.466248,-3.12418 2.091608,-2.03865 3.15065,-4.5274 3.15065,-7.46625 0,-2.91236 -1.059042,-5.40111 -3.15065,-7.46624 -2.065133,-2.06513 -4.527406,-3.12418 -7.466248,-3.12418 z m 0,3.54779 c 1.932752,0 3.600744,0.68838 4.977499,2.06514 1.376754,1.37675 2.065132,3.04474 2.065132,4.97749 0,1.93276 -0.661901,3.60075 -2.065132,5.00398 -1.376755,1.37675 -3.044747,2.03866 -4.977499,2.03866 -1.932752,0 -3.627219,-0.66191 -5.003974,-2.03866 -1.376755,-1.37676 -2.038656,-3.07122 -2.038656,-5.00398 0,-1.93275 0.661901,-3.60074 2.038656,-4.97749 1.403231,-1.40323 3.071222,-2.06514 5.003974,-2.06514 z"
               id="path4147" />
            <path
               inkscape:connector-curvature="0"
               d="m 80.977959,989.4722 c 1.350279,0.34419 2.779986,0.39715 4.209693,0.13238 1.429707,-0.26476 2.727034,-0.74132 3.89198,-1.50913 l -3.177126,-2.27694 c -0.953138,0.50304 -2.859414,0.52952 -4.130265,0.23828 -0.900186,-0.21181 -1.720944,-0.58247 -2.462273,-1.13847 -0.74133,-0.52952 -1.350279,-1.13847 -1.8798,-1.90627 -0.529521,-0.79428 -0.847234,-1.66799 -1.032566,-2.62113 -0.185333,-0.95314 -0.13238,-1.8798 0.07943,-2.80646 0.211808,-0.90019 0.582473,-1.74742 1.111994,-2.46228 0.529521,-0.74133 1.138471,-1.35028 1.932752,-1.8798 0.767806,-0.50304 1.667992,-0.82076 2.62113,-1.00609 1.8798,-0.34419 3.627219,0.0529 5.268735,1.16495 l 2.038656,-2.88589 c -1.13847,-0.79428 -2.382845,-1.3238 -3.733124,-1.66799 -1.350279,-0.34419 -2.75351,-0.37067 -4.183217,-0.10591 -1.429706,0.26476 -2.727033,0.76781 -3.89198,1.53561 -1.191422,0.76781 -2.171036,1.69447 -2.965318,2.83294 -0.767805,1.112 -1.297327,2.3299 -1.641515,3.68017 -0.344189,1.37676 -0.397141,2.77999 -0.13238,4.2097 0.26476,1.40323 0.741329,2.67408 1.509135,3.8655 0.767805,1.19142 1.747419,2.17104 2.859414,2.96532 1.13847,0.7678 2.329892,1.29733 3.706647,1.64151 z"
               id="path4149" />
            <path
               inkscape:connector-curvature="0"
               d="m 98.284019,982.74729 3.124171,-6.22188 3.0977,6.22188 3.97141,0 -7.06911,-14.13822 -10.590418,21.18085 3.918456,0 1.800372,-3.54779 1.747419,-3.49484 z m 11.940701,3.52131 -3.91846,0 1.74742,3.52132 3.94494,0 -1.7739,-3.52132 z"
               id="path4151" />
            <path
               inkscape:connector-curvature="0"
               d="m 119.3239,986.24213 -3.52132,3.54779 14.11174,0 0,-3.54779 -10.59042,0 z m -3.52132,-17.63306 0,0.58248 0,15.8062 3.52132,-3.54779 0,-12.25841 0,-0.58248 -3.52132,0 z"
               id="path4153" />
            <path
               inkscape:connector-curvature="0"
               d="m 140.0369,989.4722 c 1.35028,0.34419 2.77998,0.39715 4.20969,0.13238 1.42971,-0.26476 2.72703,-0.74132 3.89198,-1.50913 l -3.17713,-2.27694 c -0.95314,0.50304 -2.85941,0.52952 -4.13026,0.23828 -0.90019,-0.21181 -1.72095,-0.58247 -2.46228,-1.13847 -0.74132,-0.52952 -1.35027,-1.13847 -1.87979,-1.90627 -0.52953,-0.79428 -0.84724,-1.66799 -1.03257,-2.62113 -0.18533,-0.95314 -0.13238,-1.8798 0.0794,-2.80646 0.21181,-0.90019 0.58247,-1.74742 1.11199,-2.46228 0.52952,-0.74133 1.13847,-1.35028 1.93275,-1.8798 0.76781,-0.50304 1.66799,-0.82076 2.62113,-1.00609 1.8798,-0.34419 3.62722,0.0529 5.26874,1.16495 l 2.03865,-2.88589 c -1.13847,-0.79428 -2.38284,-1.3238 -3.73312,-1.66799 -1.35028,-0.34419 -2.75351,-0.37067 -4.18322,-0.10591 -1.4297,0.26476 -2.72703,0.76781 -3.89198,1.53561 -1.19142,0.76781 -2.17103,1.69447 -2.96531,2.83294 -0.76781,1.112 -1.29733,2.3299 -1.64152,3.68017 -0.34419,1.37676 -0.39714,2.77999 -0.13238,4.2097 0.26476,1.40323 0.74133,2.67408 1.50913,3.8655 0.76781,1.19142 1.74742,2.17104 2.85942,2.96532 1.13847,0.7678 2.32989,1.29733 3.70665,1.64151 z"
               id="path4155" />
          </g>
        </g>
      </g>
    </g>
  </g>
</svg>
