<?xml version="1.0" encoding="UTF-8" standalone="no"?>
<!-- Created with Inkscape (http://www.inkscape.org/) -->

<svg
   xmlns:dc="http://purl.org/dc/elements/1.1/"
   xmlns:cc="http://creativecommons.org/ns#"
   xmlns:rdf="http://www.w3.org/1999/02/22-rdf-syntax-ns#"
   xmlns:svg="http://www.w3.org/2000/svg"
   xmlns="http://www.w3.org/2000/svg"
   xmlns:sodipodi="http://sodipodi.sourceforge.net/DTD/sodipodi-0.dtd"
   xmlns:inkscape="http://www.inkscape.org/namespaces/inkscape"
   width="2in"
   height="0.3125in"
   viewBox="0 0 180 28.125"
   id="svg4226"
   version="1.1"
   inkscape:version="0.91 r13725"
   sodipodi:docname="cocalc-v7.2-pen-v3-2.0x0.3125in.svg"
   inkscape:export-filename="/home/hsy/d/sage/cocalc/artwork/cocalc-v7.2-pen-v3-2.0x0.3125in.png"
   inkscape:export-xdpi="500"
   inkscape:export-ydpi="500">
  <defs
     id="defs4228" />
  <sodipodi:namedview
     id="base"
     pagecolor="#000000"
     bordercolor="#00cc07"
     borderopacity="1"
     inkscape:pageopacity="0"
     inkscape:pageshadow="2"
     inkscape:zoom="2.8"
     inkscape:cx="-17.203724"
     inkscape:cy="-49.532194"
     inkscape:document-units="px"
     inkscape:current-layer="layer1"
     showgrid="false"
     units="in"
     inkscape:showpageshadow="false"
     borderlayer="true"
     inkscape:snap-page="false"
     inkscape:snap-others="true"
     inkscape:snap-bbox="true"
     inkscape:bbox-paths="false"
     inkscape:bbox-nodes="true"
     inkscape:window-width="1920"
     inkscape:window-height="1056"
     inkscape:window-x="0"
     inkscape:window-y="24"
     inkscape:window-maximized="1"
     showguides="true"
     inkscape:guide-bbox="true">
    <sodipodi:guide
       position="35,38.928571"
       orientation="1,0"
       id="guide4860" />
  </sodipodi:namedview>
  <metadata
     id="metadata4231">
    <rdf:RDF>
      <cc:Work
         rdf:about="">
        <dc:format>image/svg+xml</dc:format>
        <dc:type
           rdf:resource="http://purl.org/dc/dcmitype/StillImage" />
        <dc:title></dc:title>
      </cc:Work>
    </rdf:RDF>
  </metadata>
  <g
     inkscape:label="Layer 1"
     inkscape:groupmode="layer"
     id="layer1"
     transform="translate(0,-1024.2372)">
    <rect
       style="color:#000000;clip-rule:nonzero;display:inline;overflow:visible;visibility:visible;opacity:1;isolation:auto;mix-blend-mode:normal;color-interpolation:sRGB;color-interpolation-filters:linearRGB;solid-color:#000000;solid-opacity:1;fill:#000000;fill-opacity:1;fill-rule:nonzero;stroke:none;stroke-width:1;stroke-linecap:square;stroke-linejoin:round;stroke-miterlimit:4;stroke-dasharray:none;stroke-dashoffset:0;stroke-opacity:1;color-rendering:auto;image-rendering:auto;shape-rendering:auto;text-rendering:auto;enable-background:accumulate"
       id="rect4143"
       width="180"
       height="28.125"
       x="-7.1294392e-07"
       y="1024.2372" />
    <g
       style="fill:#ffffff;fill-opacity:1"
       transform="matrix(0.56390978,0,0,0.56390978,-151.50836,751.85041)"
       id="g4181">
      <path
         inkscape:connector-curvature="0"
         transform="translate(246.83107,478.3255)"
         id="path4183"
         d="m 46.84375,14.449219 c -1.048339,0 -2.069543,0.105796 -3.056641,0.30664 -0.987098,0.200844 -1.939789,0.497162 -2.845703,0.878907 -0.905914,0.381744 -1.765526,0.849876 -2.570312,1.392578 -0.804787,0.542702 -1.554566,1.160034 -2.238282,1.84375 -0.683715,0.683716 -1.301048,1.433494 -1.84375,2.238281 -0.542701,0.804787 -1.010833,1.664399 -1.392578,2.570313 -0.381744,0.905913 -0.678062,1.858605 -0.878906,2.845703 -0.200844,0.987098 -0.30664,2.008302 -0.30664,3.05664 0,1.048339 0.105796,2.071496 0.30664,3.058594 0.200844,0.987098 0.497162,1.937836 0.878906,2.84375 0.381745,0.905914 0.849877,1.767478 1.392578,2.572266 0.542702,0.804787 1.160035,1.554564 1.84375,2.238281 0.683716,0.683716 1.433495,1.301047 2.238282,1.84375 0.804786,0.542702 1.664398,1.010833 2.570312,1.392578 0.905914,0.381745 1.858605,0.678062 2.845703,0.878906 0.987098,0.200844 2.008302,0.304688 3.056641,0.304688 1.048339,0 2.071496,-0.103844 3.058594,-0.304688 0.987098,-0.200844 1.939789,-0.497161 2.845703,-0.878906 0.905914,-0.381745 1.765526,-0.849876 2.570312,-1.392578 0.804787,-0.542703 1.554566,-1.160034 2.238282,-1.84375 0.683716,-0.683717 1.301048,-1.433494 1.84375,-2.238281 0.542702,-0.804788 1.010833,-1.666352 1.392578,-2.572266 0.381744,-0.905914 0.678062,-1.856652 0.878906,-2.84375 0.200844,-0.987098 0.304687,-2.010255 0.304687,-3.058594 0,-1.048338 -0.103843,-2.069542 -0.304687,-3.05664 -0.200844,-0.987098 -0.497162,-1.93979 -0.878906,-2.845703 -0.381745,-0.905914 -0.849876,-1.765526 -1.392578,-2.570313 -0.542702,-0.804787 -1.160034,-1.554565 -1.84375,-2.238281 -0.683716,-0.683716 -1.433495,-1.301048 -2.238282,-1.84375 -0.804786,-0.542702 -1.664398,-1.010834 -2.570312,-1.392578 -0.905914,-0.381745 -1.858605,-0.678063 -2.845703,-0.878907 -0.987098,-0.200844 -2.010255,-0.30664 -3.058594,-0.30664 z"
         style="color:#000000;clip-rule:nonzero;display:inline;overflow:visible;visibility:visible;opacity:1;isolation:auto;mix-blend-mode:normal;color-interpolation:sRGB;color-interpolation-filters:linearRGB;solid-color:#000000;solid-opacity:1;fill:#ffffff;fill-opacity:1;fill-rule:nonzero;stroke:none;stroke-width:1;stroke-linecap:square;stroke-linejoin:round;stroke-miterlimit:4;stroke-dasharray:none;stroke-dashoffset:0;stroke-opacity:1;color-rendering:auto;image-rendering:auto;shape-rendering:auto;text-rendering:auto;enable-background:accumulate" />
      <path
         inkscape:connector-curvature="0"
         id="path4185"
         transform="translate(246.83107,478.3255)"
         d="m 44.34375,4.7070312 a 25,25 0 0 0 -22.5,24.8749998 25,25 0 0 0 2.226562,10.261719 l 4.341797,-2.507812 c -0.503213,-1.189907 -0.894442,-2.437476 -1.160156,-3.730469 -0.26715,-1.299982 -0.408203,-2.646328 -0.408203,-4.023438 0,-1.377108 0.141053,-2.721503 0.408203,-4.021484 0.26715,-1.299981 0.660815,-2.554292 1.167969,-3.75 0.507153,-1.195708 1.127645,-2.332195 1.847656,-3.396485 0.720011,-1.064288 1.53959,-2.057167 2.445313,-2.96289 0.905722,-0.905723 1.898602,-1.725301 2.96289,-2.445313 1.064289,-0.720011 2.200777,-1.340502 3.396485,-1.847656 1.195708,-0.507153 2.450018,-0.900819 3.75,-1.1679686 0.500222,-0.1027971 1.008777,-0.1814898 1.521484,-0.2460938 l 0,-5.0371094 z m 5,0.025391 0,5.0117187 c 0.513417,0.064621 1.022878,0.1432274 1.523438,0.2460938 1.299981,0.2671493 2.554292,0.6608153 3.75,1.1679683 1.195706,0.507154 2.332195,1.127645 3.396484,1.847656 1.064288,0.720012 2.057168,1.53959 2.96289,2.445313 0.905724,0.905723 1.725302,1.898602 2.445313,2.96289 0.720011,1.064289 1.340503,2.200777 1.847656,3.396485 0.507154,1.195708 0.900819,2.450019 1.167969,3.75 0.26715,1.299981 0.40625,2.644376 0.40625,4.021484 0,1.37711 -0.1391,2.723456 -0.40625,4.023438 -0.26576,1.293217 -0.65877,2.540376 -1.162109,3.730469 l 4.333984,2.501953 a 25,25 0 0 0 2.234375,-10.25586 25,25 0 0 0 -22.5,-24.8496088 z M 30.939453,41.650391 26.572266,44.171875 A 25,25 0 0 0 46.84375,54.582031 25,25 0 0 0 67.109375,44.167969 L 62.75,41.650391 c -0.550437,0.723588 -1.131745,1.422761 -1.773438,2.064453 -0.905722,0.905722 -1.898602,1.725301 -2.96289,2.445312 -1.064289,0.720011 -2.200777,1.340503 -3.396484,1.847656 -1.195708,0.507154 -2.450019,0.90082 -3.75,1.167969 -1.299982,0.26715 -2.646329,0.40625 -4.023438,0.40625 -1.377109,0 -2.721503,-0.1391 -4.021484,-0.40625 -1.299982,-0.267149 -2.554292,-0.660813 -3.75,-1.167969 -1.195708,-0.507153 -2.332196,-1.127645 -3.396485,-1.847656 -1.064288,-0.720011 -2.057168,-1.53959 -2.96289,-2.445312 -0.641692,-0.641692 -1.223,-1.340865 -1.773438,-2.064453 z"
         style="color:#000000;clip-rule:nonzero;display:inline;overflow:visible;visibility:visible;opacity:1;isolation:auto;mix-blend-mode:normal;color-interpolation:sRGB;color-interpolation-filters:linearRGB;solid-color:#000000;solid-opacity:1;fill:#ffffff;fill-opacity:1;fill-rule:nonzero;stroke:none;stroke-width:1;stroke-linecap:square;stroke-linejoin:round;stroke-miterlimit:4;stroke-dasharray:none;stroke-dashoffset:0;stroke-opacity:1;color-rendering:auto;image-rendering:auto;shape-rendering:auto;text-rendering:auto;enable-background:accumulate" />
    </g>
    <g
       transform="scale(1.0014175,0.99858451)"
       style="font-style:normal;font-variant:normal;font-weight:normal;font-stretch:normal;font-size:32.68929291px;line-height:100%;font-family:CoCalc;-inkscape-font-specification:CoCalc;text-align:start;letter-spacing:0px;word-spacing:0px;writing-mode:lr-tb;text-anchor:start;fill:#ffffff;fill-opacity:1;stroke:none;stroke-width:1px;stroke-linecap:butt;stroke-linejoin:miter;stroke-opacity:1"
       id="text4155">
      <path
         d="m 45.127427,1052.4832 c 1.667154,0.425 3.432376,0.4904 5.197598,0.1635 1.765221,-0.3269 3.366997,-0.9153 4.805326,-1.8633 l -3.922716,-2.8113 c -1.176814,0.6211 -3.530443,0.6538 -5.099529,0.2942 -1.111436,-0.2615 -2.124804,-0.7192 -3.040104,-1.4056 -0.915301,-0.6538 -1.667154,-1.4057 -2.32094,-2.3537 -0.653786,-0.9806 -1.046058,-2.0594 -1.274883,-3.2362 -0.228825,-1.1768 -0.163446,-2.321 0.09807,-3.4651 0.261515,-1.1114 0.719165,-2.1575 1.372951,-3.0401 0.653785,-0.9153 1.405639,-1.6671 2.386318,-2.3209 0.947989,-0.6211 2.059425,-1.0134 3.23624,-1.2422 2.32094,-0.425 4.478433,0.065 6.505169,1.4383 l 2.517076,-3.5631 c -1.40564,-0.9807 -2.942037,-1.6345 -4.609191,-2.0594 -1.667154,-0.425 -3.399686,-0.4577 -5.164908,-0.1308 -1.765222,0.3269 -3.366997,0.948 -4.805326,1.896 -1.471018,0.948 -2.680522,2.0921 -3.661201,3.4977 -0.947989,1.373 -1.601775,2.8767 -2.026736,4.5438 -0.424961,1.6999 -0.490339,3.4324 -0.163446,5.1976 0.326893,1.7326 0.9153,3.3017 1.863289,4.7727 0.94799,1.471 2.157494,2.6805 3.530444,3.6612 1.40564,0.948 2.876658,1.6018 4.576501,2.0267 z"
         style=""
         id="path4863" />
      <path
         d="m 70.27427,1026.7241 c -3.628511,0 -6.701305,1.3075 -9.21838,3.8573 -2.549765,2.5498 -3.857337,5.6225 -3.857337,9.2184 0,3.6285 1.307572,6.6686 3.857337,9.2184 2.549764,2.5497 5.589869,3.8573 9.21838,3.8573 3.628512,0 6.668616,-1.3076 9.218381,-3.8573 2.582454,-2.5171 3.890026,-5.5899 3.890026,-9.2184 0,-3.5959 -1.307572,-6.6686 -3.890026,-9.2184 -2.549765,-2.5498 -5.589869,-3.8573 -9.218381,-3.8573 z m 0,4.3803 c 2.386319,0 4.445744,0.8499 6.145587,2.5498 1.699844,1.6998 2.549765,3.7593 2.549765,6.1456 0,2.3863 -0.817232,4.4457 -2.549765,6.1782 -1.699843,1.6999 -3.759268,2.5171 -6.145587,2.5171 -2.386318,0 -4.478433,-0.8172 -6.178276,-2.5171 -1.699843,-1.6998 -2.517076,-3.7919 -2.517076,-6.1782 0,-2.3863 0.817233,-4.4458 2.517076,-6.1456 1.732532,-1.7325 3.791958,-2.5498 6.178276,-2.5498 z"
         style=""
         id="path4865" />
      <path
         d="m 96.365575,1052.4832 c 1.667154,0.425 3.432375,0.4904 5.197595,0.1635 1.76522,-0.3269 3.367,-0.9153 4.80533,-1.8633 l -3.92272,-2.8113 c -1.17681,0.6211 -3.53044,0.6538 -5.099526,0.2942 -1.111436,-0.2615 -2.124805,-0.7192 -3.040105,-1.4056 -0.9153,-0.6538 -1.667154,-1.4057 -2.32094,-2.3537 -0.653785,-0.9806 -1.046057,-2.0594 -1.274882,-3.2362 -0.228825,-1.1768 -0.163446,-2.321 0.09807,-3.4651 0.261514,-1.1114 0.719164,-2.1575 1.37295,-3.0401 0.653786,-0.9153 1.40564,-1.6671 2.386319,-2.3209 0.947989,-0.6211 2.059425,-1.0134 3.23624,-1.2422 2.320936,-0.425 4.478436,0.065 6.505166,1.4383 l 2.51708,-3.5631 c -1.40564,-0.9807 -2.94204,-1.6345 -4.60919,-2.0594 -1.66716,-0.425 -3.399688,-0.4577 -5.16491,-0.1308 -1.765222,0.3269 -3.366997,0.948 -4.805326,1.896 -1.471018,0.948 -2.680522,2.0921 -3.661201,3.4977 -0.947989,1.373 -1.601775,2.8767 -2.026736,4.5438 -0.424961,1.6999 -0.49034,3.4324 -0.163447,5.1976 0.326893,1.7326 0.915301,3.3017 1.86329,4.7727 0.94799,1.471 2.157493,2.6805 3.530444,3.6612 1.405639,0.948 2.876658,1.6018 4.576501,2.0267 z"
         style=""
         id="path4867" />
      <path
         d="m 117.73291,1044.1801 3.85734,-7.6819 3.82464,7.6819 4.9034,0 -8.72804,-17.456 -13.07572,26.1514 4.83802,0 2.22287,-4.3804 2.15749,-4.315 z m 14.74287,4.3477 -4.83801,0 2.15749,4.3477 4.8707,0 -2.19018,-4.3477 z"
         style=""
         id="path4869" />
      <path
         d="m 143.71031,1048.4951 -4.34768,4.3804 17.4234,0 0,-4.3804 -13.07572,0 z m -4.34768,-21.771 0,0.7191 0,19.5155 4.34768,-4.3803 0,-15.1352 0,-0.7191 -4.34768,0 z"
         style=""
         id="path4871" />
      <path
         d="m 169.2841,1052.4832 c 1.66716,0.425 3.43238,0.4904 5.1976,0.1635 1.76522,-0.3269 3.367,-0.9153 4.80533,-1.8633 l -3.92272,-2.8113 c -1.17681,0.6211 -3.53044,0.6538 -5.09953,0.2942 -1.11143,-0.2615 -2.1248,-0.7192 -3.0401,-1.4056 -0.9153,-0.6538 -1.66716,-1.4057 -2.32094,-2.3537 -0.65379,-0.9806 -1.04606,-2.0594 -1.27488,-3.2362 -0.22883,-1.1768 -0.16345,-2.321 0.0981,-3.4651 0.26152,-1.1114 0.71917,-2.1575 1.37295,-3.0401 0.65379,-0.9153 1.40564,-1.6671 2.38632,-2.3209 0.94799,-0.6211 2.05943,-1.0134 3.23624,-1.2422 2.32094,-0.425 4.47844,0.065 6.50517,1.4383 l 2.51708,-3.5631 c -1.40564,-0.9807 -2.94204,-1.6345 -4.60919,-2.0594 -1.66716,-0.425 -3.39969,-0.4577 -5.16491,-0.1308 -1.76522,0.3269 -3.367,0.948 -4.80533,1.896 -1.47101,0.948 -2.68052,2.0921 -3.6612,3.4977 -0.94799,1.373 -1.60177,2.8767 -2.02673,4.5438 -0.42496,1.6999 -0.49034,3.4324 -0.16345,5.1976 0.32689,1.7326 0.9153,3.3017 1.86329,4.7727 0.94799,1.471 2.15749,2.6805 3.53044,3.6612 1.40564,0.948 2.87666,1.6018 4.5765,2.0267 z"
         style=""
         id="path4873" />
    </g>
  </g>
</svg>
