<?xml version="1.0" encoding="UTF-8" standalone="no"?>
<!-- Created with Inkscape (http://www.inkscape.org/) -->

<svg
   xmlns:dc="http://purl.org/dc/elements/1.1/"
   xmlns:cc="http://creativecommons.org/ns#"
   xmlns:rdf="http://www.w3.org/1999/02/22-rdf-syntax-ns#"
   xmlns:svg="http://www.w3.org/2000/svg"
   xmlns="http://www.w3.org/2000/svg"
   xmlns:sodipodi="http://sodipodi.sourceforge.net/DTD/sodipodi-0.dtd"
   xmlns:inkscape="http://www.inkscape.org/namespaces/inkscape"
   width="1.5in"
   height="0.75in"
   viewBox="0 0 135 67.5"
   id="svg4226"
   version="1.1"
   inkscape:version="0.91 r13725"
   sodipodi:docname="cocalc-v7.2-pen-v2-1.50x0.75in.svg"
   inkscape:export-filename="/home/hsy/d/sage/cocalc/artwork/cocalc-v7.2-pen-v2-1.50x0.75in.png"
   inkscape:export-xdpi="300"
   inkscape:export-ydpi="300">
  <defs
     id="defs4228" />
  <sodipodi:namedview
     id="base"
     pagecolor="#000000"
     bordercolor="#00cc07"
     borderopacity="1"
     inkscape:pageopacity="0"
     inkscape:pageshadow="2"
     inkscape:zoom="2.8"
     inkscape:cx="77.336771"
     inkscape:cy="8.0080556"
     inkscape:document-units="px"
     inkscape:current-layer="layer1"
     showgrid="false"
     units="in"
     inkscape:showpageshadow="false"
     borderlayer="true"
     inkscape:snap-page="true"
     inkscape:snap-others="true"
     inkscape:snap-bbox="true"
     inkscape:bbox-paths="true"
     inkscape:bbox-nodes="true"
     inkscape:window-width="1920"
     inkscape:window-height="1056"
     inkscape:window-x="0"
     inkscape:window-y="24"
     inkscape:window-maximized="1"
     showguides="true"
     inkscape:guide-bbox="true" />
  <metadata
     id="metadata4231">
    <rdf:RDF>
      <cc:Work
         rdf:about="">
        <dc:format>image/svg+xml</dc:format>
        <dc:type
           rdf:resource="http://purl.org/dc/dcmitype/StillImage" />
        <dc:title></dc:title>
      </cc:Work>
    </rdf:RDF>
  </metadata>
  <g
     inkscape:label="Layer 1"
     inkscape:groupmode="layer"
     id="layer1"
     transform="translate(0,-984.8622)">
    <rect
       style="color:#000000;clip-rule:nonzero;display:inline;overflow:visible;visibility:visible;opacity:1;isolation:auto;mix-blend-mode:normal;color-interpolation:sRGB;color-interpolation-filters:linearRGB;solid-color:#000000;solid-opacity:1;fill:#000000;fill-opacity:1;fill-rule:nonzero;stroke:none;stroke-width:1;stroke-linecap:square;stroke-linejoin:round;stroke-miterlimit:4;stroke-dasharray:none;stroke-dashoffset:0;stroke-opacity:1;color-rendering:auto;image-rendering:auto;shape-rendering:auto;text-rendering:auto;enable-background:accumulate"
       id="rect4143"
       width="135"
       height="67.5"
       x="0"
       y="984.86218"
       inkscape:export-xdpi="300"
       inkscape:export-ydpi="300" />
    <path
       style="font-style:normal;font-variant:normal;font-weight:normal;font-stretch:normal;font-size:medium;line-height:100%;font-family:CoCalc;-inkscape-font-specification:CoCalc;text-align:start;letter-spacing:0px;word-spacing:0px;writing-mode:lr-tb;text-anchor:start;fill:#ffffff;fill-opacity:1;stroke:none;stroke-width:1px;stroke-linecap:butt;stroke-linejoin:miter;stroke-opacity:1"
       id="path4193"
       d="m 7.0154164,1027.2343 c 1.149251,0.2882 2.366099,0.3326 3.5829476,0.1109 1.216848,-0.2217 2.321023,-0.6208 3.312537,-1.2638 l -2.704108,-1.9069 c -0.811243,0.4213 -2.4337076,0.4435 -3.5153496,0.1996 -0.766168,-0.1774 -1.464727,-0.4878 -2.095689,-0.9534 -0.630951,-0.4435 -1.14924,-0.9535 -1.599932,-1.5965 -0.450681,-0.6651 -0.721092,-1.3968 -0.878829,-2.1951 -0.157749,-0.7982 -0.112719,-1.5742 0.06765,-2.3503 0.180282,-0.7538 0.495757,-1.4633 0.946438,-2.062 0.450692,-0.6208 0.968981,-1.1308 1.645008,-1.5743 0.653494,-0.4212 1.41965,-0.6873 2.230883,-0.8425 1.599943,-0.2883 3.0872016,0.044 4.4843196,0.9756 l 1.735138,-2.4168 c -0.96897,-0.6652 -2.028081,-1.1087 -3.177332,-1.3969 -1.1492396,-0.2883 -2.3435556,-0.3104 -3.5604036,-0.089 -1.21686,0.2217 -2.321035,0.643 -3.312537,1.286 -1.014046,0.643 -1.847811,1.4191 -2.523837,2.3725 -0.65349503,0.9312 -1.10418703,1.9512 -1.39713003,3.082 -0.292943,1.1529 -0.338008,2.3281 -0.112719,3.5254 0.225346,1.1752 0.630962,2.2394 1.28445603,3.2372 0.653495,0.9978 1.487259,1.8182 2.433697,2.4833 0.968981,0.6431 1.983016,1.0865 3.154799,1.3747 z"
       inkscape:connector-curvature="0" />
    <path
       style="font-style:normal;font-variant:normal;font-weight:normal;font-stretch:normal;font-size:medium;line-height:100%;font-family:CoCalc;-inkscape-font-specification:CoCalc;text-align:start;letter-spacing:0px;word-spacing:0px;writing-mode:lr-tb;text-anchor:start;fill:#ffffff;fill-opacity:1;stroke:none;stroke-width:1px;stroke-linecap:butt;stroke-linejoin:miter;stroke-opacity:1"
       id="path4197"
       d="m 77.522839,1027.2343 c 1.149252,0.2882 2.3661,0.3326 3.582948,0.1109 1.216848,-0.2217 2.321035,-0.6208 3.312537,-1.2638 l -2.704107,-1.9069 c -0.811232,0.4213 -2.433697,0.4435 -3.515351,0.1996 -0.766156,-0.1774 -1.464727,-0.4878 -2.095677,-0.9534 -0.630962,-0.4435 -1.149252,-0.9535 -1.599932,-1.5965 -0.450692,-0.6651 -0.721103,-1.3968 -0.878841,-2.1951 -0.157737,-0.7982 -0.112719,-1.5742 0.06766,-2.3503 0.180281,-0.7538 0.495757,-1.4633 0.946449,-2.062 0.45068,-0.6208 0.96897,-1.1308 1.644996,-1.5743 0.653495,-0.4212 1.419662,-0.6873 2.230895,-0.8425 1.599932,-0.2883 3.087191,0.044 4.48432,0.9756 l 1.735138,-2.4168 c -0.968982,-0.6652 -2.028092,-1.1087 -3.177332,-1.3969 -1.149251,-0.2883 -2.343567,-0.3104 -3.560416,-0.089 -1.216848,0.2217 -2.321034,0.643 -3.312537,1.286 -1.014046,0.643 -1.84781,1.4191 -2.523837,2.3725 -0.653494,0.9312 -1.104175,1.9512 -1.39713,3.082 -0.292943,1.1529 -0.338007,2.3281 -0.112719,3.5254 0.225335,1.1752 0.630951,2.2394 1.284445,3.2372 0.653495,0.9978 1.487259,1.8182 2.433708,2.4833 0.96897,0.6431 1.983005,1.0865 3.154788,1.3747 z"
       inkscape:connector-curvature="0" />
    <path
       style="font-style:normal;font-variant:normal;font-weight:normal;font-stretch:normal;font-size:medium;line-height:100%;font-family:CoCalc;-inkscape-font-specification:CoCalc;text-align:start;letter-spacing:0px;word-spacing:0px;writing-mode:lr-tb;text-anchor:start;fill:#ffffff;fill-opacity:1;stroke:none;stroke-width:1px;stroke-linecap:butt;stroke-linejoin:miter;stroke-opacity:1"
       id="path4199"
       d="m 92.252352,1021.6025 2.659042,-5.2106 2.63651,5.2106 3.380136,0 -6.016646,-11.8402 -9.013706,17.7381 3.335069,0 1.532336,-2.9712 1.487259,-2.9267 z m 10.162948,2.9489 -3.335072,0 1.487262,2.949 3.35761,0 -1.5098,-2.949 z"
       inkscape:connector-curvature="0" />
    <path
       style="font-style:normal;font-variant:normal;font-weight:normal;font-stretch:normal;font-size:medium;line-height:100%;font-family:CoCalc;-inkscape-font-specification:CoCalc;text-align:start;letter-spacing:0px;word-spacing:0px;writing-mode:lr-tb;text-anchor:start;fill:#ffffff;fill-opacity:1;stroke:none;stroke-width:1px;stroke-linecap:butt;stroke-linejoin:miter;stroke-opacity:1"
       id="path4201"
       d="m 110.15977,1024.5292 -2.99705,2.9712 12.01076,0 0,-2.9712 -9.01371,0 z m -2.99705,-14.7669 0,0.4878 0,13.237 2.99705,-2.9711 0,-10.2659 0,-0.4878 -2.99705,0 z"
       inkscape:connector-curvature="0" />
    <path
       style="font-style:normal;font-variant:normal;font-weight:normal;font-stretch:normal;font-size:medium;line-height:100%;font-family:CoCalc;-inkscape-font-specification:CoCalc;text-align:start;letter-spacing:0px;word-spacing:0px;writing-mode:lr-tb;text-anchor:start;fill:#ffffff;fill-opacity:1;stroke:none;stroke-width:1px;stroke-linecap:butt;stroke-linejoin:miter;stroke-opacity:1"
       id="path4203"
       d="m 127.789,1027.2343 c 1.14924,0.2882 2.3661,0.3326 3.58295,0.1109 1.21685,-0.2217 2.32102,-0.6208 3.31254,-1.2638 l -2.70412,-1.9069 c -0.81123,0.4213 -2.4337,0.4435 -3.51534,0.1996 -0.76617,-0.1774 -1.46473,-0.4878 -2.09569,-0.9534 -0.63096,-0.4435 -1.14925,-0.9535 -1.59993,-1.5965 -0.45068,-0.6651 -0.72109,-1.3968 -0.87884,-2.1951 -0.15774,-0.7982 -0.11272,-1.5742 0.0677,-2.3503 0.18027,-0.7538 0.49576,-1.4633 0.94644,-2.062 0.45068,-0.6208 0.96897,-1.1308 1.645,-1.5743 0.65349,-0.4212 1.41966,-0.6873 2.23089,-0.8425 1.59993,-0.2883 3.08719,0.044 4.48432,0.9756 l 1.73514,-2.4168 c -0.96897,-0.6652 -2.02808,-1.1087 -3.17733,-1.3969 -1.14926,-0.2883 -2.34357,-0.3104 -3.56042,-0.089 -1.21685,0.2217 -2.32102,0.643 -3.31254,1.286 -1.01403,0.643 -1.84781,1.4191 -2.52383,2.3725 -0.6535,0.9312 -1.10418,1.9512 -1.39712,3.082 -0.29294,1.1529 -0.33802,2.3281 -0.11272,3.5254 0.22535,1.1752 0.63096,2.2394 1.28446,3.2372 0.65349,0.9978 1.48725,1.8182 2.43369,2.4833 0.96897,0.6431 1.98302,1.0865 3.1548,1.3747 z"
       inkscape:connector-curvature="0" />
    <g
       style="fill:#ffffff;fill-opacity:1"
       transform="matrix(0.98093457,0,0,0.98093457,-246.43595,520.22694)"
       id="g4181">
      <path
         inkscape:connector-curvature="0"
         transform="translate(246.83107,478.3255)"
         id="path4183"
         d="m 46.84375,14.449219 c -1.048339,0 -2.069543,0.105796 -3.056641,0.30664 -0.987098,0.200844 -1.939789,0.497162 -2.845703,0.878907 -0.905914,0.381744 -1.765526,0.849876 -2.570312,1.392578 -0.804787,0.542702 -1.554566,1.160034 -2.238282,1.84375 -0.683715,0.683716 -1.301048,1.433494 -1.84375,2.238281 -0.542701,0.804787 -1.010833,1.664399 -1.392578,2.570313 -0.381744,0.905913 -0.678062,1.858605 -0.878906,2.845703 -0.200844,0.987098 -0.30664,2.008302 -0.30664,3.05664 0,1.048339 0.105796,2.071496 0.30664,3.058594 0.200844,0.987098 0.497162,1.937836 0.878906,2.84375 0.381745,0.905914 0.849877,1.767478 1.392578,2.572266 0.542702,0.804787 1.160035,1.554564 1.84375,2.238281 0.683716,0.683716 1.433495,1.301047 2.238282,1.84375 0.804786,0.542702 1.664398,1.010833 2.570312,1.392578 0.905914,0.381745 1.858605,0.678062 2.845703,0.878906 0.987098,0.200844 2.008302,0.304688 3.056641,0.304688 1.048339,0 2.071496,-0.103844 3.058594,-0.304688 0.987098,-0.200844 1.939789,-0.497161 2.845703,-0.878906 0.905914,-0.381745 1.765526,-0.849876 2.570312,-1.392578 0.804787,-0.542703 1.554566,-1.160034 2.238282,-1.84375 0.683716,-0.683717 1.301048,-1.433494 1.84375,-2.238281 0.542702,-0.804788 1.010833,-1.666352 1.392578,-2.572266 0.381744,-0.905914 0.678062,-1.856652 0.878906,-2.84375 0.200844,-0.987098 0.304687,-2.010255 0.304687,-3.058594 0,-1.048338 -0.103843,-2.069542 -0.304687,-3.05664 -0.200844,-0.987098 -0.497162,-1.93979 -0.878906,-2.845703 -0.381745,-0.905914 -0.849876,-1.765526 -1.392578,-2.570313 -0.542702,-0.804787 -1.160034,-1.554565 -1.84375,-2.238281 -0.683716,-0.683716 -1.433495,-1.301048 -2.238282,-1.84375 -0.804786,-0.542702 -1.664398,-1.010834 -2.570312,-1.392578 -0.905914,-0.381745 -1.858605,-0.678063 -2.845703,-0.878907 -0.987098,-0.200844 -2.010255,-0.30664 -3.058594,-0.30664 z"
         style="color:#000000;clip-rule:nonzero;display:inline;overflow:visible;visibility:visible;opacity:1;isolation:auto;mix-blend-mode:normal;color-interpolation:sRGB;color-interpolation-filters:linearRGB;solid-color:#000000;solid-opacity:1;fill:#ffffff;fill-opacity:1;fill-rule:nonzero;stroke:none;stroke-width:1;stroke-linecap:square;stroke-linejoin:round;stroke-miterlimit:4;stroke-dasharray:none;stroke-dashoffset:0;stroke-opacity:1;color-rendering:auto;image-rendering:auto;shape-rendering:auto;text-rendering:auto;enable-background:accumulate" />
      <path
         inkscape:connector-curvature="0"
         id="path4185"
         transform="translate(246.83107,478.3255)"
         d="m 44.34375,4.7070312 a 25,25 0 0 0 -22.5,24.8749998 25,25 0 0 0 2.226562,10.261719 l 4.341797,-2.507812 c -0.503213,-1.189907 -0.894442,-2.437476 -1.160156,-3.730469 -0.26715,-1.299982 -0.408203,-2.646328 -0.408203,-4.023438 0,-1.377108 0.141053,-2.721503 0.408203,-4.021484 0.26715,-1.299981 0.660815,-2.554292 1.167969,-3.75 0.507153,-1.195708 1.127645,-2.332195 1.847656,-3.396485 0.720011,-1.064288 1.53959,-2.057167 2.445313,-2.96289 0.905722,-0.905723 1.898602,-1.725301 2.96289,-2.445313 1.064289,-0.720011 2.200777,-1.340502 3.396485,-1.847656 1.195708,-0.507153 2.450018,-0.900819 3.75,-1.1679686 0.500222,-0.1027971 1.008777,-0.1814898 1.521484,-0.2460938 l 0,-5.0371094 z m 5,0.025391 0,5.0117187 c 0.513417,0.064621 1.022878,0.1432274 1.523438,0.2460938 1.299981,0.2671493 2.554292,0.6608153 3.75,1.1679683 1.195706,0.507154 2.332195,1.127645 3.396484,1.847656 1.064288,0.720012 2.057168,1.53959 2.96289,2.445313 0.905724,0.905723 1.725302,1.898602 2.445313,2.96289 0.720011,1.064289 1.340503,2.200777 1.847656,3.396485 0.507154,1.195708 0.900819,2.450019 1.167969,3.75 0.26715,1.299981 0.40625,2.644376 0.40625,4.021484 0,1.37711 -0.1391,2.723456 -0.40625,4.023438 -0.26576,1.293217 -0.65877,2.540376 -1.162109,3.730469 l 4.333984,2.501953 a 25,25 0 0 0 2.234375,-10.25586 25,25 0 0 0 -22.5,-24.8496088 z M 30.939453,41.650391 26.572266,44.171875 A 25,25 0 0 0 46.84375,54.582031 25,25 0 0 0 67.109375,44.167969 L 62.75,41.650391 c -0.550437,0.723588 -1.131745,1.422761 -1.773438,2.064453 -0.905722,0.905722 -1.898602,1.725301 -2.96289,2.445312 -1.064289,0.720011 -2.200777,1.340503 -3.396484,1.847656 -1.195708,0.507154 -2.450019,0.90082 -3.75,1.167969 -1.299982,0.26715 -2.646329,0.40625 -4.023438,0.40625 -1.377109,0 -2.721503,-0.1391 -4.021484,-0.40625 -1.299982,-0.267149 -2.554292,-0.660813 -3.75,-1.167969 -1.195708,-0.507153 -2.332196,-1.127645 -3.396485,-1.847656 -1.064288,-0.720011 -2.057168,-1.53959 -2.96289,-2.445312 -0.641692,-0.641692 -1.223,-1.340865 -1.773438,-2.064453 z"
         style="color:#000000;clip-rule:nonzero;display:inline;overflow:visible;visibility:visible;opacity:1;isolation:auto;mix-blend-mode:normal;color-interpolation:sRGB;color-interpolation-filters:linearRGB;solid-color:#000000;solid-opacity:1;fill:#ffffff;fill-opacity:1;fill-rule:nonzero;stroke:none;stroke-width:1;stroke-linecap:square;stroke-linejoin:round;stroke-miterlimit:4;stroke-dasharray:none;stroke-dashoffset:0;stroke-opacity:1;color-rendering:auto;image-rendering:auto;shape-rendering:auto;text-rendering:auto;enable-background:accumulate" />
    </g>
  </g>
</svg>
