<?xml version="1.0" encoding="UTF-8" standalone="no"?>
<!-- Created with Inkscape (http://www.inkscape.org/) -->

<svg
   xmlns:dc="http://purl.org/dc/elements/1.1/"
   xmlns:cc="http://creativecommons.org/ns#"
   xmlns:rdf="http://www.w3.org/1999/02/22-rdf-syntax-ns#"
   xmlns:svg="http://www.w3.org/2000/svg"
   xmlns="http://www.w3.org/2000/svg"
   xmlns:sodipodi="http://sodipodi.sourceforge.net/DTD/sodipodi-0.dtd"
   xmlns:inkscape="http://www.inkscape.org/namespaces/inkscape"
   width="2in"
   height="2in"
   viewBox="0 0 180 180"
   id="svg4180"
   version="1.1"
   inkscape:version="0.91 r13725"
   sodipodi:docname="cocalc-button-v2.svg"
   inkscape:export-filename="/home/hsy/d/cocalc/artwork/cocalc-button-v2.svg.png"
   inkscape:export-xdpi="600"
   inkscape:export-ydpi="600">
  <defs
     id="defs4182" />
  <sodipodi:namedview
     id="base"
     pagecolor="#ffffff"
     bordercolor="#666666"
     borderopacity="1.0"
     inkscape:pageopacity="1"
     inkscape:pageshadow="2"
     inkscape:zoom="2.8"
     inkscape:cx="28.567931"
     inkscape:cy="46.115564"
     inkscape:document-units="px"
     inkscape:current-layer="layer1"
     showgrid="false"
     inkscape:window-width="1920"
     inkscape:window-height="1056"
     inkscape:window-x="0"
     inkscape:window-y="24"
     inkscape:window-maximized="1"
     units="in"
     inkscape:snap-bbox="true"
     inkscape:bbox-nodes="true"
     inkscape:snap-page="true" />
  <metadata
     id="metadata4185">
    <rdf:RDF>
      <cc:Work
         rdf:about="">
        <dc:format>image/svg+xml</dc:format>
        <dc:type
           rdf:resource="http://purl.org/dc/dcmitype/StillImage" />
        <dc:title></dc:title>
      </cc:Work>
    </rdf:RDF>
  </metadata>
  <g
     inkscape:label="Layer 1"
     inkscape:groupmode="layer"
     id="layer1"
     transform="translate(0,-872.36212)">
    <g
       transform="translate(-200.58361,424.66251)"
       id="g4148">
      <circle
         style="color:#000000;clip-rule:nonzero;display:inline;overflow:visible;visibility:visible;opacity:1;isolation:auto;mix-blend-mode:normal;color-interpolation:sRGB;color-interpolation-filters:linearRGB;solid-color:#000000;solid-opacity:1;fill:none;fill-opacity:1;fill-rule:nonzero;stroke:#4474c0;stroke-width:9.17846966;stroke-linecap:butt;stroke-linejoin:miter;stroke-miterlimit:4;stroke-dasharray:none;stroke-dashoffset:0;stroke-opacity:1;color-rendering:auto;image-rendering:auto;shape-rendering:auto;text-rendering:auto;enable-background:accumulate"
         id="path4808"
         cx="290.58362"
         cy="537.69958"
         r="85.410759" />
      <text
         xml:space="preserve"
         style="font-style:normal;font-variant:normal;font-weight:bold;font-stretch:normal;font-size:8.75px;line-height:125%;font-family:'Noto Sans';-inkscape-font-specification:'Noto Sans Bold';text-align:center;letter-spacing:0px;word-spacing:0px;writing-mode:lr-tb;text-anchor:middle;fill:#000000;fill-opacity:1;stroke:none;stroke-width:1px;stroke-linecap:butt;stroke-linejoin:miter;stroke-opacity:1"
         x="290.66266"
         y="590.45966"
         id="text4810"
         sodipodi:linespacing="125%"><tspan
           sodipodi:role="line"
           x="290.66266"
           y="590.45966"
           id="tspan4814"
           style="font-style:normal;font-variant:normal;font-weight:bold;font-stretch:normal;font-size:8.75px;line-height:125%;font-family:'Noto Sans';-inkscape-font-specification:'Noto Sans Bold';text-align:center;text-anchor:middle;fill:#6d6d6d;fill-opacity:1">Collaborative Calculation</tspan><tspan
           sodipodi:role="line"
           x="290.66266"
           y="601.39716"
           style="font-style:normal;font-variant:normal;font-weight:bold;font-stretch:normal;font-size:8.75px;line-height:125%;font-family:'Noto Sans';-inkscape-font-specification:'Noto Sans Bold';text-align:center;text-anchor:middle;fill:#6d6d6d;fill-opacity:1"
           id="tspan4818">in the Cloud</tspan></text>
    </g>
    <g
       id="g4827"
       transform="matrix(1.1553655,0,0,1.1553655,-13.982895,-142.07472)">
      <g
         id="g4820"
         transform="translate(-200.58361,424.66251)">
        <path
           inkscape:connector-curvature="0"
           id="path4192"
           d="m 290.58361,482.29641 c -1.41961,0 -2.80248,0.14326 -4.13917,0.41524 -1.33668,0.27197 -2.62678,0.67323 -3.85353,1.19017 -1.22675,0.51694 -2.39079,1.15087 -3.4806,1.88577 -1.08981,0.7349 -2.10513,1.57087 -3.03098,2.49673 -0.92586,0.92586 -1.76183,1.94117 -2.49673,3.03098 -0.7349,1.08981 -1.36883,2.25386 -1.88577,3.48061 -0.51694,1.22674 -0.9182,2.51684 -1.19017,3.85352 -0.27198,1.33669 -0.41524,2.71956 -0.41524,4.13917 0,1.41962 0.14326,2.80513 0.41524,4.14182 0.27197,1.33668 0.67323,2.62413 1.19017,3.85088 0.51694,1.22675 1.15087,2.39344 1.88577,3.48325 0.7349,1.08981 1.57087,2.10512 2.49673,3.03098 0.92585,0.92586 1.94117,1.76182 3.03098,2.49673 1.08981,0.7349 2.25385,1.36882 3.4806,1.88576 1.22675,0.51695 2.51685,0.91821 3.85353,1.19018 1.33669,0.27198 2.71956,0.4126 4.13917,0.4126 1.41962,0 2.80513,-0.14062 4.14182,-0.4126 1.33668,-0.27197 2.62677,-0.67323 3.85352,-1.19018 1.22675,-0.51694 2.3908,-1.15086 3.48061,-1.88576 1.0898,-0.73491 2.10512,-1.57087 3.03098,-2.49673 0.92586,-0.92586 1.76182,-1.94117 2.49673,-3.03098 0.7349,-1.08981 1.36882,-2.2565 1.88576,-3.48325 0.51695,-1.22675 0.91821,-2.5142 1.19018,-3.85088 0.27198,-1.33669 0.41259,-2.7222 0.41259,-4.14182 0,-1.41961 -0.14061,-2.80248 -0.41259,-4.13917 -0.27197,-1.33668 -0.67323,-2.62678 -1.19018,-3.85352 -0.51694,-1.22675 -1.15086,-2.3908 -1.88576,-3.48061 -0.73491,-1.08981 -1.57087,-2.10512 -2.49673,-3.03098 -0.92586,-0.92586 -1.94118,-1.76183 -3.03098,-2.49673 -1.08981,-0.7349 -2.25386,-1.36883 -3.48061,-1.88577 -1.22675,-0.51694 -2.51684,-0.9182 -3.85352,-1.19017 -1.33669,-0.27198 -2.7222,-0.41524 -4.14182,-0.41524 z"
           style="color:#000000;clip-rule:nonzero;display:inline;overflow:visible;visibility:visible;opacity:1;isolation:auto;mix-blend-mode:normal;color-interpolation:sRGB;color-interpolation-filters:linearRGB;solid-color:#000000;solid-opacity:1;fill:#fbb635;fill-opacity:1;fill-rule:nonzero;stroke:none;stroke-width:1;stroke-linecap:square;stroke-linejoin:round;stroke-miterlimit:4;stroke-dasharray:none;stroke-dashoffset:0;stroke-opacity:1;color-rendering:auto;image-rendering:auto;shape-rendering:auto;text-rendering:auto;enable-background:accumulate" />
        <path
           inkscape:connector-curvature="0"
           id="path4173"
           d="m 287.19822,469.10396 a 33.85391,33.85391 0 0 0 -30.46852,33.68464 33.85391,33.85391 0 0 0 3.01511,13.89597 l 5.87948,-3.39597 c -0.68143,-1.61132 -1.21122,-3.30072 -1.57104,-5.05163 -0.36176,-1.76038 -0.55277,-3.58355 -0.55277,-5.44837 0,-1.86482 0.19101,-3.68534 0.55277,-5.44572 0.36177,-1.76037 0.89485,-3.45891 1.58162,-5.07808 0.68676,-1.61918 1.527,-3.15816 2.50201,-4.59938 0.97501,-1.44121 2.08485,-2.78572 3.31134,-4.01221 1.22649,-1.22649 2.571,-2.33633 4.01221,-3.31134 1.44122,-0.97501 2.9802,-1.81525 4.59938,-2.50201 1.61917,-0.68677 3.3177,-1.21985 5.07808,-1.58162 0.67738,-0.1392 1.36604,-0.24576 2.06033,-0.33324 l 0,-6.82104 z m 6.77078,0.0344 0,6.78666 c 0.69525,0.0875 1.38514,0.19395 2.06298,0.33324 1.76037,0.36177 3.45891,0.89485 5.07808,1.58162 1.61917,0.68676 3.15816,1.527 4.59937,2.50201 1.44121,0.97501 2.78573,2.08485 4.01222,3.31134 1.22649,1.22649 2.33633,2.571 3.31133,4.01221 0.97501,1.44122 1.81526,2.9802 2.50202,4.59938 0.68677,1.61917 1.21985,3.31771 1.58161,5.07808 0.36177,1.76038 0.55013,3.5809 0.55013,5.44572 0,1.86482 -0.18836,3.68799 -0.55013,5.44837 -0.35988,1.75121 -0.89208,3.44006 -1.57367,5.05163 l 5.86889,3.38804 a 33.85391,33.85391 0 0 0 3.02569,-13.88804 33.85391,33.85391 0 0 0 -30.46852,-33.65026 z m -24.92229,49.99271 -5.91386,3.41448 a 33.85391,33.85391 0 0 0 27.45076,14.09698 33.85391,33.85391 0 0 0 27.44283,-14.10227 l -5.90328,-3.40919 c -0.74538,0.97985 -1.53256,1.92664 -2.40151,2.79559 -1.22649,1.22649 -2.57101,2.33633 -4.01222,3.31133 -1.44121,0.97501 -2.98019,1.81526 -4.59937,2.50202 -1.61917,0.68677 -3.31771,1.21985 -5.07808,1.58161 -1.76038,0.36177 -3.58355,0.55013 -5.44837,0.55013 -1.86482,0 -3.68534,-0.18836 -5.44572,-0.55013 -1.76038,-0.36176 -3.45891,-0.89484 -5.07808,-1.58161 -1.61918,-0.68676 -3.15816,-1.52701 -4.59938,-2.50202 -1.44121,-0.975 -2.78572,-2.08484 -4.01221,-3.31133 -0.86895,-0.86895 -1.65614,-1.81574 -2.40151,-2.79559 z"
           style="color:#000000;clip-rule:nonzero;display:inline;overflow:visible;visibility:visible;opacity:1;isolation:auto;mix-blend-mode:normal;color-interpolation:sRGB;color-interpolation-filters:linearRGB;solid-color:#000000;solid-opacity:1;fill:#4474c0;fill-opacity:1;fill-rule:nonzero;stroke:none;stroke-width:1;stroke-linecap:square;stroke-linejoin:round;stroke-miterlimit:4;stroke-dasharray:none;stroke-dashoffset:0;stroke-opacity:1;color-rendering:auto;image-rendering:auto;shape-rendering:auto;text-rendering:auto;enable-background:accumulate" />
      </g>
      <g
         transform="scale(1.0014175,0.99858451)"
         style="font-style:normal;font-variant:normal;font-weight:normal;font-stretch:normal;font-size:26.47605515px;line-height:100%;font-family:CoCalc;-inkscape-font-specification:CoCalc;text-align:start;letter-spacing:0px;word-spacing:0px;writing-mode:lr-tb;text-anchor:start;fill:#434343;fill-opacity:1;stroke:none;stroke-width:1px;stroke-linecap:butt;stroke-linejoin:miter;stroke-opacity:1"
         id="text4155">
        <path
           d="m 39.478615,989.4722 c 1.350279,0.34419 2.779986,0.39715 4.209693,0.13238 1.429707,-0.26476 2.727034,-0.74132 3.89198,-1.50913 l -3.177126,-2.27694 c -0.953138,0.50304 -2.859414,0.52952 -4.130265,0.23828 -0.900186,-0.21181 -1.720943,-0.58247 -2.462273,-1.13847 -0.74133,-0.52952 -1.350279,-1.13847 -1.8798,-1.90627 -0.529521,-0.79428 -0.847234,-1.66799 -1.032566,-2.62113 -0.185332,-0.95314 -0.13238,-1.8798 0.07943,-2.80646 0.211809,-0.90019 0.582473,-1.74742 1.111994,-2.46228 0.529521,-0.74133 1.138471,-1.35028 1.932752,-1.8798 0.767806,-0.50304 1.667992,-0.82076 2.62113,-1.00609 1.8798,-0.34419 3.627219,0.0529 5.268735,1.16495 l 2.038656,-2.88589 c -1.13847,-0.79428 -2.382845,-1.3238 -3.733124,-1.66799 -1.350278,-0.34419 -2.753509,-0.37067 -4.183216,-0.10591 -1.429707,0.26476 -2.727034,0.76781 -3.891981,1.53561 -1.191422,0.76781 -2.171036,1.69447 -2.965318,2.83294 -0.767805,1.112 -1.297326,2.3299 -1.641515,3.68017 -0.344189,1.37676 -0.397141,2.77999 -0.13238,4.2097 0.26476,1.40323 0.741329,2.67408 1.509135,3.8655 0.767805,1.19142 1.747419,2.17104 2.859414,2.96532 1.13847,0.7678 2.329893,1.29733 3.706647,1.64151 z"
           style=""
           id="path4145" />
        <path
           d="m 59.845812,968.60907 c -2.938842,0 -5.427591,1.05905 -7.466247,3.12418 -2.065133,2.06513 -3.124175,4.55388 -3.124175,7.46624 0,2.93885 1.059042,5.40112 3.124175,7.46625 2.065132,2.06513 4.527405,3.12418 7.466247,3.12418 2.938842,0 5.401115,-1.05905 7.466248,-3.12418 2.091608,-2.03865 3.15065,-4.5274 3.15065,-7.46625 0,-2.91236 -1.059042,-5.40111 -3.15065,-7.46624 -2.065133,-2.06513 -4.527406,-3.12418 -7.466248,-3.12418 z m 0,3.54779 c 1.932752,0 3.600744,0.68838 4.977499,2.06514 1.376754,1.37675 2.065132,3.04474 2.065132,4.97749 0,1.93276 -0.661901,3.60075 -2.065132,5.00398 -1.376755,1.37675 -3.044747,2.03866 -4.977499,2.03866 -1.932752,0 -3.627219,-0.66191 -5.003974,-2.03866 -1.376755,-1.37676 -2.038656,-3.07122 -2.038656,-5.00398 0,-1.93275 0.661901,-3.60074 2.038656,-4.97749 1.403231,-1.40323 3.071222,-2.06514 5.003974,-2.06514 z"
           style=""
           id="path4147" />
        <path
           d="m 80.977959,989.4722 c 1.350279,0.34419 2.779986,0.39715 4.209693,0.13238 1.429707,-0.26476 2.727034,-0.74132 3.89198,-1.50913 l -3.177126,-2.27694 c -0.953138,0.50304 -2.859414,0.52952 -4.130265,0.23828 -0.900186,-0.21181 -1.720944,-0.58247 -2.462273,-1.13847 -0.74133,-0.52952 -1.350279,-1.13847 -1.8798,-1.90627 -0.529521,-0.79428 -0.847234,-1.66799 -1.032566,-2.62113 -0.185333,-0.95314 -0.13238,-1.8798 0.07943,-2.80646 0.211808,-0.90019 0.582473,-1.74742 1.111994,-2.46228 0.529521,-0.74133 1.138471,-1.35028 1.932752,-1.8798 0.767806,-0.50304 1.667992,-0.82076 2.62113,-1.00609 1.8798,-0.34419 3.627219,0.0529 5.268735,1.16495 l 2.038656,-2.88589 c -1.13847,-0.79428 -2.382845,-1.3238 -3.733124,-1.66799 -1.350279,-0.34419 -2.75351,-0.37067 -4.183217,-0.10591 -1.429706,0.26476 -2.727033,0.76781 -3.89198,1.53561 -1.191422,0.76781 -2.171036,1.69447 -2.965318,2.83294 -0.767805,1.112 -1.297327,2.3299 -1.641515,3.68017 -0.344189,1.37676 -0.397141,2.77999 -0.13238,4.2097 0.26476,1.40323 0.741329,2.67408 1.509135,3.8655 0.767805,1.19142 1.747419,2.17104 2.859414,2.96532 1.13847,0.7678 2.329892,1.29733 3.706647,1.64151 z"
           style=""
           id="path4149" />
        <path
           d="m 98.284019,982.74729 3.124171,-6.22188 3.0977,6.22188 3.97141,0 -7.06911,-14.13822 -10.590418,21.18085 3.918456,0 1.800372,-3.54779 1.747419,-3.49484 z m 11.940701,3.52131 -3.91846,0 1.74742,3.52132 3.94494,0 -1.7739,-3.52132 z"
           style=""
           id="path4151" />
        <path
           d="m 119.3239,986.24213 -3.52132,3.54779 14.11174,0 0,-3.54779 -10.59042,0 z m -3.52132,-17.63306 0,0.58248 0,15.8062 3.52132,-3.54779 0,-12.25841 0,-0.58248 -3.52132,0 z"
           style=""
           id="path4153" />
        <path
           d="m 140.0369,989.4722 c 1.35028,0.34419 2.77998,0.39715 4.20969,0.13238 1.42971,-0.26476 2.72703,-0.74132 3.89198,-1.50913 l -3.17713,-2.27694 c -0.95314,0.50304 -2.85941,0.52952 -4.13026,0.23828 -0.90019,-0.21181 -1.72095,-0.58247 -2.46228,-1.13847 -0.74132,-0.52952 -1.35027,-1.13847 -1.87979,-1.90627 -0.52953,-0.79428 -0.84724,-1.66799 -1.03257,-2.62113 -0.18533,-0.95314 -0.13238,-1.8798 0.0794,-2.80646 0.21181,-0.90019 0.58247,-1.74742 1.11199,-2.46228 0.52952,-0.74133 1.13847,-1.35028 1.93275,-1.8798 0.76781,-0.50304 1.66799,-0.82076 2.62113,-1.00609 1.8798,-0.34419 3.62722,0.0529 5.26874,1.16495 l 2.03865,-2.88589 c -1.13847,-0.79428 -2.38284,-1.3238 -3.73312,-1.66799 -1.35028,-0.34419 -2.75351,-0.37067 -4.18322,-0.10591 -1.4297,0.26476 -2.72703,0.76781 -3.89198,1.53561 -1.19142,0.76781 -2.17103,1.69447 -2.96531,2.83294 -0.76781,1.112 -1.29733,2.3299 -1.64152,3.68017 -0.34419,1.37676 -0.39714,2.77999 -0.13238,4.2097 0.26476,1.40323 0.74133,2.67408 1.50913,3.8655 0.76781,1.19142 1.74742,2.17104 2.85942,2.96532 1.13847,0.7678 2.32989,1.29733 3.70665,1.64151 z"
           style=""
           id="path4155" />
      </g>
    </g>
  </g>
</svg>
